<?xml version="1.0" encoding="UTF-8" standalone="no"?>
<svg
    xmlns:svg="http://www.w3.org/2000/svg"
    xmlns="http://www.w3.org/2000/svg"
>
    <!--javafx.scene.chart.LineChart | root chart | => handled as Region -->
    <g style="fill:#F4F4F4;" >
        <g>
            <rect width="600.0" height="600.0"/>
        </g>

        <!-- javafx.scene.control.Label | label chart-title | => handled as Label -->
        <text x="214.0" y="23.0" font-family="System" font-size="16.799999237060547" fill="#333333" text-anchor="MIDDLE">Stock Monitoring, 2010</text>

        <!--javafx.scene.chart.Chart$1 | chart-content | => handled as Region -->
        <g transform="translate(5.0,29.0) " >
            <g>
                <rect width="590.0" height="537.0"/>
            </g>

            <!--javafx.scene.layout.Region | chart-plot-background | => handled as Region -->
            <g style="fill:#F4F4F4;"  transform="translate(61.0,10.0) " >
                <rect width="520.0" height="472.0"/>
            </g>

            <!--javafx.scene.chart.XYChart$1 | => handled as Group -->
            <g transform="translate(61.0,10.0) " >
                <!--javafx.scene.shape.Path | chart-alternative-column-fill | => handled as Shape -->
                <!-- warning: empty path shape -->
                <!--javafx.scene.shape.Path | chart-alternative-row-fill | => handled as Shape -->
                <path style="fill:transparent;stroke:transparent;stroke-width:1.0;"  d="M 61.0 36.0 L 581.0 36.0 L 581.0 62.0 L 61.0 62.0 ZM 61.0 89.0 L 581.0 89.0 L 581.0 115.0 L 61.0 115.0 ZM 61.0 141.0 L 581.0 141.0 L 581.0 167.0 L 61.0 167.0 ZM 61.0 194.0 L 581.0 194.0 L 581.0 220.0 L 61.0 220.0 ZM 61.0 246.0 L 581.0 246.0 L 581.0 272.0 L 61.0 272.0 ZM 61.0 298.0 L 581.0 298.0 L 581.0 325.0 L 61.0 325.0 ZM 61.0 351.0 L 581.0 351.0 L 581.0 377.0 L 61.0 377.0 ZM 61.0 403.0 L 581.0 403.0 L 581.0 430.0 L 61.0 430.0 ZM 61.0 456.0 L 581.0 456.0 L 581.0 482.0 L 61.0 482.0 Z"/>

                <!--javafx.scene.shape.Path | chart-vertical-grid-lines | => handled as Shape -->
                <path style="fill:transparent;stroke:#DBDBDB;stroke-width:1.0;stroke-dasharray:3.0;"  transform="translate(100.5,9.0) "  d="M 101.5 10.0 L 101.5 482.0 M 141.5 10.0 L 141.5 482.0 M 181.5 10.0 L 181.5 482.0 M 221.5 10.0 L 221.5 482.0 M 261.5 10.0 L 261.5 482.0 M 301.5 10.0 L 301.5 482.0 M 341.5 10.0 L 341.5 482.0 M 381.5 10.0 L 381.5 482.0 M 421.5 10.0 L 421.5 482.0 M 461.5 10.0 L 461.5 482.0 M 501.5 10.0 L 501.5 482.0 M 541.5 10.0 L 541.5 482.0 M 581.5 10.0 L 581.5 482.0 "/>

                <!--javafx.scene.shape.Path | chart-horizontal-grid-lines | => handled as Shape -->
                <path style="fill:transparent;stroke:#DBDBDB;stroke-width:1.0;stroke-dasharray:3.0;"  transform="translate(60.0,9.5) "  d="M 61.0 456.5 L 581.0 456.5 M 61.0 430.5 L 581.0 430.5 M 61.0 403.5 L 581.0 403.5 M 61.0 377.5 L 581.0 377.5 M 61.0 351.5 L 581.0 351.5 M 61.0 325.5 L 581.0 325.5 M 61.0 298.5 L 581.0 298.5 M 61.0 272.5 L 581.0 272.5 M 61.0 246.5 L 581.0 246.5 M 61.0 220.5 L 581.0 220.5 M 61.0 194.5 L 581.0 194.5 M 61.0 167.5 L 581.0 167.5 M 61.0 141.5 L 581.0 141.5 M 61.0 115.5 L 581.0 115.5 M 61.0 89.5 L 581.0 89.5 M 61.0 62.5 L 581.0 62.5 M 61.0 36.5 L 581.0 36.5 M 61.0 10.5 L 581.0 10.5 "/>

                <!--javafx.scene.shape.Line | chart-vertical-zero-line | => handled as Shape -->
                <path style="fill:transparent;stroke:#636363;stroke-width:1.0;"  transform="translate(61.0,9.5) "  d="M 61.5 10.0 L 61.5 482.0"/>

                <!--javafx.scene.shape.Line | chart-horizontal-zero-line | => handled as Shape -->
                <path style="fill:transparent;stroke:#636363;stroke-width:1.0;"  transform="translate(60.5,482.0) "  d="M 61.0 482.5 L 581.0 482.5"/>

                <!--javafx.scene.Group | plot-content | => handled as Group -->
                <g transform="translate(96.0,15.0) " >
                    <!--javafx.scene.shape.Path | chart-series-line series0 default-color0 | => handled as Shape -->
                    <path style="fill:transparent;stroke:#F3622D;stroke-width:3.0;"  transform="translate(38.0,7.486323833465576) "  d="M 40.0 231.0 L 40.0 231.0 L 480.0 10.0 "/>

                    <!-- Warning: Multiple fills are not yet implemented. => Only first fill will be used. -->
                    <!--javafx.scene.layout.StackPane | chart-line-symbol series0 data0 default-color0 | => handled as Region -->
                    <g style="fill:#F3622D;"  transform="translate(35.0,226.0) " >
                        <rect width="10.0" height="10.0" rx="5.0" ry="5.0"/>
                    </g>

                    <!-- Warning: Multiple fills are not yet implemented. => Only first fill will be used. -->
                    <!--javafx.scene.layout.StackPane | chart-line-symbol series0 data1 default-color0 | => handled as Region -->
                    <g style="fill:#F3622D;"  transform="translate(475.0,5.0) " >
                        <rect width="10.0" height="10.0" rx="5.0" ry="5.0"/>
                    </g>

                </g>
            </g>
            <!--javafx.scene.chart.NumberAxis | axis | => handled as Region -->
            <g transform="translate(58.3046875,481.5) " >
                <g>
                    <rect width="520.0" height="46.0"/>
                    <line id="top" x1="0" y1="46.0"  x2="520.0" y2="46.0" style ="stroke:#C3C3C3;opacity:1.0;"/>
                    <line id="right" x1="520.0" y1="46.0"  x2="520.0" y2="0" style ="stroke:#000000;opacity:0.0;"/>
                    <line id="bottom" x1="520.0" y1="0"  x2="0" y2="0" style ="stroke:#000000;opacity:0.0;"/>
                    <line id="left" x1="0" y1="0"  x2="0" y2="46.0" style ="stroke:#000000;opacity:0.0;"/>
                </g>

                <!-- javafx.scene.control.Label | label axis-label | => handled as Label -->
                <text x="212.0" y="46.0" font-family="System" font-size="12.0" fill="#333333" text-anchor="MIDDLE">Number of Month</text>

                <!--javafx.scene.shape.Path | axis-tick-mark | => handled as Shape -->
                <path style="fill:transparent;stroke:#C3C3C3;stroke-width:1.0;"  transform="translate(-0.5,-0.5) "  d="M 0.0 0.0 L 0.0 8.0 M 0.0 0.0 L 0.0 8.0 M 40.0 0.0 L 40.0 8.0 M 80.0 0.0 L 80.0 8.0 M 120.0 0.0 L 120.0 8.0 M 160.0 0.0 L 160.0 8.0 M 200.0 0.0 L 200.0 8.0 M 240.0 0.0 L 240.0 8.0 M 280.0 0.0 L 280.0 8.0 M 320.0 0.0 L 320.0 8.0 M 360.0 0.0 L 360.0 8.0 M 400.0 0.0 L 400.0 8.0 M 440.0 0.0 L 440.0 8.0 M 480.0 0.0 L 480.0 8.0 M 520.0 0.0 L 520.0 8.0 "/>

                <!--javafx.scene.shape.Path | axis-minor-tick-mark | => handled as Shape -->
                <path style="fill:transparent;stroke:#C3C3C3;stroke-width:1.0;"  transform="translate(7.5,0.5) "  d="M 8.0 1.0 L 8.0 5.0 M 16.0 1.0 L 16.0 5.0 M 24.0 1.0 L 24.0 5.0 M 32.0 1.0 L 32.0 5.0 M 48.0 1.0 L 48.0 5.0 M 56.0 1.0 L 56.0 5.0 M 64.0 1.0 L 64.0 5.0 M 72.0 1.0 L 72.0 5.0 M 80.0 1.0 L 80.0 5.0 M 88.0 1.0 L 88.0 5.0 M 96.0 1.0 L 96.0 5.0 M 104.0 1.0 L 104.0 5.0 M 112.0 1.0 L 112.0 5.0 M 128.0 1.0 L 128.0 5.0 M 136.0 1.0 L 136.0 5.0 M 144.0 1.0 L 144.0 5.0 M 152.0 1.0 L 152.0 5.0 M 168.0 1.0 L 168.0 5.0 M 176.0 1.0 L 176.0 5.0 M 184.0 1.0 L 184.0 5.0 M 192.0 1.0 L 192.0 5.0 M 208.0 1.0 L 208.0 5.0 M 216.0 1.0 L 216.0 5.0 M 224.0 1.0 L 224.0 5.0 M 232.0 1.0 L 232.0 5.0 M 248.0 1.0 L 248.0 5.0 M 256.0 1.0 L 256.0 5.0 M 264.0 1.0 L 264.0 5.0 M 272.0 1.0 L 272.0 5.0 M 288.0 1.0 L 288.0 5.0 M 296.0 1.0 L 296.0 5.0 M 304.0 1.0 L 304.0 5.0 M 312.0 1.0 L 312.0 5.0 M 328.0 1.0 L 328.0 5.0 M 336.0 1.0 L 336.0 5.0 M 344.0 1.0 L 344.0 5.0 M 352.0 1.0 L 352.0 5.0 M 360.0 1.0 L 360.0 5.0 M 368.0 1.0 L 368.0 5.0 M 376.0 1.0 L 376.0 5.0 M 384.0 1.0 L 384.0 5.0 M 392.0 1.0 L 392.0 5.0 M 400.0 1.0 L 400.0 5.0 M 408.0 1.0 L 408.0 5.0 M 416.0 1.0 L 416.0 5.0 M 424.0 1.0 L 424.0 5.0 M 432.0 1.0 L 432.0 5.0 M 440.0 1.0 L 440.0 5.0 M 448.0 1.0 L 448.0 5.0 M 456.0 1.0 L 456.0 5.0 M 464.0 1.0 L 464.0 5.0 M 472.0 1.0 L 472.0 5.0 M 480.0 1.0 L 480.0 5.0 M 488.0 1.0 L 488.0 5.0 M 496.0 1.0 L 496.0 5.0 M 504.0 1.0 L 504.0 5.0 M 512.0 1.0 L 512.0 5.0 M 520.0 1.0 L 520.0 5.0 "/>

                <!--javafx.scene.text.Text | => handled as Shape -->
                <path style="fill:#575757;stroke:transparent;stroke-width:1.0;"  transform="translate(-2.6953125,11.0) "  d="M 66.0439453125 526.3505859375 C 66.9912109375 526.3505859375 67.46484375 527.3483276367188 67.46484375 529.34375 C 67.46484375 531.2708129882812 66.9814453125 532.234375 66.0146484375 532.234375 C 65.03482818603516 532.234375 64.544921875 531.287109375 64.544921875 529.392578125 C 64.544921875 527.3645629882812 65.04459381103516 526.3505859375 66.0439453125 526.3505859375 ZM 66.087890625 525.671875 C 65.32291412353516 525.671875 64.73779296875 525.9892578125 64.33251953125 526.6240234375 C 63.92724609375 527.2587890625 63.724609375 528.1946411132812 63.724609375 529.431640625 C 63.724609375 530.5579223632812 63.91910934448242 531.4189453125 64.30810546875 532.0146484375 C 64.69710540771484 532.6103515625 65.23828125 532.908203125 65.931640625 532.908203125 C 66.673828125 532.908203125 67.25162506103516 532.5964965820312 67.6650390625 531.97314453125 C 68.07845306396484 531.3497924804688 68.28515625 530.4456176757812 68.28515625 529.2607421875 C 68.28515625 526.8681640625 67.552734375 525.671875 66.087890625 525.671875 Z"/>

                <!--javafx.scene.text.Text | => handled as Shape -->
                <path style="visibility:HIDDEN;fill:#575757;stroke:transparent;stroke-width:1.0;"  transform="translate(-2.6953125,11.0) "  d="M 66.0439453125 526.3505859375 C 66.9912109375 526.3505859375 67.46484375 527.3483276367188 67.46484375 529.34375 C 67.46484375 531.2708129882812 66.9814453125 532.234375 66.0146484375 532.234375 C 65.03482818603516 532.234375 64.544921875 531.287109375 64.544921875 529.392578125 C 64.544921875 527.3645629882812 65.04459381103516 526.3505859375 66.0439453125 526.3505859375 ZM 66.087890625 525.671875 C 65.32291412353516 525.671875 64.73779296875 525.9892578125 64.33251953125 526.6240234375 C 63.92724609375 527.2587890625 63.724609375 528.1946411132812 63.724609375 529.431640625 C 63.724609375 530.5579223632812 63.91910934448242 531.4189453125 64.30810546875 532.0146484375 C 64.69710540771484 532.6103515625 65.23828125 532.908203125 65.931640625 532.908203125 C 66.673828125 532.908203125 67.25162506103516 532.5964965820312 67.6650390625 531.97314453125 C 68.07845306396484 531.3497924804688 68.28515625 530.4456176757812 68.28515625 529.2607421875 C 68.28515625 526.8681640625 67.552734375 525.671875 66.087890625 525.671875 Z"/>

                <!--javafx.scene.text.Text | => handled as Shape -->
                <path style="fill:#575757;stroke:transparent;stroke-width:1.0;"  transform="translate(37.3046875,11.0) "  d="M 106.546875 525.6328125 L 104.125 526.3701171875 L 104.125 527.1318359375 L 105.74609375 526.6484375 L 105.74609375 532.087890625 L 104.1640625 532.087890625 L 104.1640625 532.791015625 L 108.1240234375 532.791015625 L 108.1240234375 532.087890625 L 106.546875 532.087890625 L 106.546875 525.6328125 Z"/>

                <!--javafx.scene.text.Text | => handled as Shape -->
                <path style="fill:#575757;stroke:transparent;stroke-width:1.0;"  transform="translate(77.3046875,11.0) "  d="M 146.0439453125 525.671875 C 145.3180389404297 525.671875 144.681640625 525.8850708007812 144.134765625 526.3115234375 L 144.134765625 527.1513671875 C 144.7076873779297 526.6174926757812 145.306640625 526.3505859375 145.931640625 526.3505859375 C 146.3580780029297 526.3505859375 146.6868438720703 526.4612426757812 146.91796875 526.6826171875 C 147.1490936279297 526.9039916992188 147.2646484375 527.2164916992188 147.2646484375 527.6201171875 C 147.2646484375 528.0139770507812 147.1531524658203 528.38427734375 146.93017578125 528.73095703125 C 146.7071990966797 529.07763671875 146.3352813720703 529.5114135742188 145.814453125 530.0322265625 L 143.7734375 532.078125 L 143.7734375 532.791015625 L 147.9921875 532.791015625 L 147.9921875 532.068359375 L 144.7353515625 532.068359375 L 144.7353515625 532.048828125 L 146.3515625 530.4521484375 C 146.9928436279297 529.8173828125 147.4371795654297 529.2859497070312 147.6845703125 528.85791015625 C 147.9319610595703 528.4298706054688 148.0556640625 527.9912109375 148.0556640625 527.5419921875 C 148.0556640625 526.9723510742188 147.8766326904297 526.5182495117188 147.5185546875 526.1796875 C 147.1604766845703 525.8411254882812 146.6689453125 525.671875 146.0439453125 525.671875 Z"/>

                <!--javafx.scene.text.Text | => handled as Shape -->
                <path style="fill:#575757;stroke:transparent;stroke-width:1.0;"  transform="translate(117.3046875,11.0) "  d="M 185.8046875 525.671875 C 185.1927032470703 525.671875 184.662109375 525.8053588867188 184.212890625 526.072265625 L 184.212890625 526.853515625 C 184.6490936279297 526.5182495117188 185.1129608154297 526.3505859375 185.6044921875 526.3505859375 C 186.4866485595703 526.3505859375 186.927734375 526.7477416992188 186.927734375 527.5419921875 C 186.927734375 528.4013671875 186.3499298095703 528.8310546875 185.1943359375 528.8310546875 L 184.642578125 528.8310546875 L 184.642578125 529.509765625 L 185.2236328125 529.509765625 C 186.5224609375 529.509765625 187.171875 529.9671020507812 187.171875 530.8818359375 C 187.171875 531.2952270507812 187.0261993408203 531.6240234375 186.73486328125 531.8681640625 C 186.4435272216797 532.1123046875 186.0537109375 532.234375 185.5654296875 532.234375 C 184.9632110595703 532.234375 184.4228515625 532.0455932617188 183.9443359375 531.66796875 L 183.9443359375 532.5322265625 C 184.3382110595703 532.7828979492188 184.8671875 532.908203125 185.53125 532.908203125 C 186.2701873779297 532.908203125 186.8650665283203 532.71533203125 187.31591796875 532.32958984375 C 187.7667694091797 531.94384765625 187.9921875 531.4368286132812 187.9921875 530.80859375 C 187.9921875 530.3528442382812 187.84326171875 529.9728393554688 187.54541015625 529.66845703125 C 187.24755859375 529.3640747070312 186.8463592529297 529.1875 186.341796875 529.138671875 L 186.341796875 529.119140625 C 187.279296875 528.85546875 187.748046875 528.2630004882812 187.748046875 527.341796875 C 187.748046875 526.853515625 187.5714569091797 526.453125 187.21826171875 526.140625 C 186.8650665283203 525.828125 186.3938751220703 525.671875 185.8046875 525.671875 Z"/>

                <!--javafx.scene.text.Text | => handled as Shape -->
                <path style="fill:#575757;stroke:transparent;stroke-width:1.0;"  transform="translate(157.3046875,11.0) "  d="M 226.68359375 526.53125 C 226.6705780029297 526.7981567382812 226.6640625 527.0390625 226.6640625 527.25390625 L 226.6640625 530.28125 L 224.2421875 530.28125 L 226.3955078125 527.068359375 C 226.5289764404297 526.8274536132812 226.6184844970703 526.6484375 226.6640625 526.53125 ZM 226.48828125 525.7890625 L 223.373046875 530.408203125 L 223.373046875 530.9306640625 L 226.6640625 530.9306640625 L 226.6640625 532.791015625 L 227.455078125 532.791015625 L 227.455078125 530.9306640625 L 228.353515625 530.9306640625 L 228.353515625 530.28125 L 227.455078125 530.28125 L 227.455078125 525.7890625 Z"/>

                <!--javafx.scene.text.Text | => handled as Shape -->
                <path style="fill:#575757;stroke:transparent;stroke-width:1.0;"  transform="translate(197.3046875,11.0) "  d="M 264.3251953125 525.7890625 L 264.3251953125 529.2998046875 C 264.8623046875 529.2607421875 265.228515625 529.2412109375 265.423828125 529.2412109375 C 266.0 529.2412109375 266.4427185058594 529.3698120117188 266.751953125 529.626953125 C 267.0611877441406 529.8840942382812 267.2158203125 530.2421875 267.2158203125 530.701171875 C 267.2158203125 531.1633911132812 267.064453125 531.5344848632812 266.76171875 531.814453125 C 266.458984375 532.0944213867188 266.0602111816406 532.234375 265.5654296875 532.234375 C 265.0706481933594 532.234375 264.583984375 532.0797729492188 264.10546875 531.7705078125 L 264.10546875 532.6201171875 C 264.4244689941406 532.8121948242188 264.9078674316406 532.908203125 265.5556640625 532.908203125 C 266.3238830566406 532.908203125 266.9285583496094 532.7014770507812 267.36962890625 532.2880859375 C 267.8106994628906 531.8746948242188 268.03125 531.3294067382812 268.03125 530.65234375 C 268.03125 529.998046875 267.826171875 529.48291015625 267.416015625 529.10693359375 C 267.005859375 528.73095703125 266.4264221191406 528.54296875 265.677734375 528.54296875 C 265.4954528808594 528.54296875 265.296875 528.5494995117188 265.08203125 528.5625 L 265.08203125 526.51171875 L 267.7138671875 526.51171875 L 267.7138671875 525.7890625 Z"/>

                <!--javafx.scene.text.Text | => handled as Shape -->
                <path style="fill:#575757;stroke:transparent;stroke-width:1.0;"  transform="translate(237.3046875,11.0) "  d="M 306.1171875 529.08984375 C 306.546875 529.08984375 306.8805236816406 529.2297973632812 307.1181640625 529.509765625 C 307.3558044433594 529.7897338867188 307.474609375 530.1770629882812 307.474609375 530.671875 C 307.474609375 531.1243286132812 307.3509216308594 531.4978637695312 307.103515625 531.79248046875 C 306.8561096191406 532.0870971679688 306.5306091308594 532.234375 306.126953125 532.234375 C 305.7037658691406 532.234375 305.3644104003906 532.0651245117188 305.10888671875 531.7265625 C 304.8533630371094 531.3880004882812 304.7255859375 530.9794921875 304.7255859375 530.5009765625 C 304.7255859375 530.1201171875 304.8541564941406 529.7897338867188 305.111328125 529.509765625 C 305.3684997558594 529.2297973632812 305.7037658691406 529.08984375 306.1171875 529.08984375 ZM 306.703125 525.671875 C 305.84375 525.671875 305.1520080566406 526.0380859375 304.6279296875 526.7705078125 C 304.1038513183594 527.5029296875 303.841796875 528.4827270507812 303.841796875 529.7099609375 C 303.841796875 530.7223510742188 304.0419921875 531.5084838867188 304.4423828125 532.068359375 C 304.8427734375 532.6282348632812 305.39453125 532.908203125 306.09765625 532.908203125 C 306.7356872558594 532.908203125 307.2613830566406 532.69091796875 307.6748046875 532.25634765625 C 308.0882263183594 531.82177734375 308.294921875 531.2610473632812 308.294921875 530.57421875 C 308.294921875 529.9166870117188 308.1142578125 529.3917846679688 307.7529296875 528.99951171875 C 307.3916015625 528.6072387695312 306.9049377441406 528.4111328125 306.29296875 528.4111328125 C 305.55078125 528.4111328125 305.0169372558594 528.7415161132812 304.69140625 529.40234375 L 304.671875 529.40234375 C 304.671875 528.474609375 304.8582458496094 527.7340698242188 305.23095703125 527.1806640625 C 305.6036682128906 526.6272583007812 306.1009216308594 526.3505859375 306.72265625 526.3505859375 C 307.123046875 526.3505859375 307.50390625 526.443359375 307.865234375 526.62890625 L 307.865234375 525.8720703125 C 307.5787658691406 525.7385864257812 307.19140625 525.671875 306.703125 525.671875 Z"/>

                <!--javafx.scene.text.Text | => handled as Shape -->
                <path style="fill:#575757;stroke:transparent;stroke-width:1.0;"  transform="translate(277.3046875,11.0) "  d="M 343.724609375 525.7890625 L 343.724609375 526.51171875 L 347.2548828125 526.51171875 L 344.6328125 532.791015625 L 345.462890625 532.791015625 L 348.236328125 526.04296875 L 348.236328125 525.7890625 Z"/>

                <!--javafx.scene.text.Text | => handled as Shape -->
                <path style="fill:#575757;stroke:transparent;stroke-width:1.0;"  transform="translate(317.3046875,11.0) "  d="M 386.0341796875 526.3505859375 C 386.3824768066406 526.3505859375 386.6575622558594 526.443359375 386.859375 526.62890625 C 387.0611877441406 526.814453125 387.162109375 527.068359375 387.162109375 527.390625 C 387.162109375 527.9830932617188 386.7763671875 528.4387817382812 386.0048828125 528.7578125 C 385.2464294433594 528.4485473632812 384.8671875 527.9895629882812 384.8671875 527.380859375 C 384.8671875 527.0813598632812 384.9803161621094 526.8347778320312 385.20654296875 526.64111328125 C 385.4327697753906 526.4474487304688 385.7086486816406 526.3505859375 386.0341796875 526.3505859375 ZM 385.951171875 529.5 C 386.9147033691406 529.8450317382812 387.396484375 530.369140625 387.396484375 531.072265625 C 387.396484375 531.4075317382812 387.2687072753906 531.68505859375 387.01318359375 531.90478515625 C 386.7576599121094 532.12451171875 386.4280700683594 532.234375 386.0244140625 532.234375 C 385.6012268066406 532.234375 385.26025390625 532.1228637695312 385.00146484375 531.89990234375 C 384.74267578125 531.6769409179688 384.61328125 531.3912963867188 384.61328125 531.04296875 C 384.61328125 530.369140625 385.0592346191406 529.8547973632812 385.951171875 529.5 ZM 386.107421875 525.671875 C 385.501953125 525.671875 385.0071716308594 525.8338012695312 384.623046875 526.15771484375 C 384.2389221191406 526.4816284179688 384.046875 526.8958129882812 384.046875 527.400390625 C 384.046875 528.142578125 384.466796875 528.708984375 385.306640625 529.099609375 L 385.306640625 529.119140625 C 384.2975158691406 529.529296875 383.79296875 530.18359375 383.79296875 531.08203125 C 383.79296875 531.6223754882812 383.9866638183594 532.0618286132812 384.3740234375 532.400390625 C 384.7613830566406 532.7389526367188 385.2545471191406 532.908203125 385.853515625 532.908203125 C 386.595703125 532.908203125 387.1751403808594 532.7373046875 387.591796875 532.3955078125 C 388.0084533691406 532.0537109375 388.216796875 531.5930786132812 388.216796875 531.013671875 C 388.216796875 530.115234375 387.7057189941406 529.4837036132812 386.68359375 529.119140625 L 386.68359375 529.099609375 C 387.5494689941406 528.669921875 387.982421875 528.0676879882812 387.982421875 527.29296875 C 387.982421875 526.8176879882812 387.806640625 526.4287109375 387.455078125 526.1259765625 C 387.103515625 525.8232421875 386.654296875 525.671875 386.107421875 525.671875 Z"/>

                <!--javafx.scene.text.Text | => handled as Shape -->
                <path style="fill:#575757;stroke:transparent;stroke-width:1.0;"  transform="translate(357.3046875,11.0) "  d="M 425.94140625 526.3505859375 C 426.3580627441406 526.3505859375 426.6966247558594 526.5182495117188 426.95703125 526.853515625 C 427.2174377441406 527.1887817382812 427.34765625 527.6217651367188 427.34765625 528.15234375 C 427.34765625 528.5234375 427.2166442871094 528.8375854492188 426.95458984375 529.0947265625 C 426.6925354003906 529.3518676757812 426.3727111816406 529.48046875 425.9951171875 529.48046875 C 425.5621643066406 529.48046875 425.21875 529.3396606445312 424.96484375 529.05810546875 C 424.7109375 528.7765502929688 424.583984375 528.3899536132812 424.583984375 527.8984375 C 424.583984375 527.44921875 424.71337890625 527.0789184570312 424.97216796875 526.78759765625 C 425.23095703125 526.4962768554688 425.5540466308594 526.3505859375 425.94140625 526.3505859375 ZM 426.0146484375 525.671875 C 425.3570861816406 525.671875 424.8175354003906 525.8908081054688 424.39599609375 526.32861328125 C 423.9744567871094 526.7664184570312 423.763671875 527.3271484375 423.763671875 528.0107421875 C 423.763671875 528.6520385742188 423.9557189941406 529.1760864257812 424.33984375 529.5830078125 C 424.7239685058594 529.9899291992188 425.2154846191406 530.193359375 425.814453125 530.193359375 C 426.556640625 530.193359375 427.0774841308594 529.8922729492188 427.376953125 529.2900390625 C 427.38018798828125 529.2916259765625 427.3834533691406 529.29248046875 427.38671875 529.29248046875 C 427.3899841308594 529.29248046875 427.3932189941406 529.2916870117188 427.396484375 529.2900390625 L 427.396484375 529.2900390625 C 427.396484375 530.2307739257812 427.2198791503906 530.9567260742188 426.86669921875 531.4677734375 C 426.5135192871094 531.9788208007812 426.01953125 532.234375 425.384765625 532.234375 C 424.9485778808594 532.234375 424.53515625 532.1237182617188 424.14453125 531.90234375 L 424.14453125 532.673828125 C 424.4895935058594 532.830078125 424.896484375 532.908203125 425.365234375 532.908203125 C 426.2571716308594 532.908203125 426.9537658691406 532.5582885742188 427.455078125 531.8583984375 C 427.9563903808594 531.1585083007812 428.20703125 530.1624145507812 428.20703125 528.8701171875 C 428.20703125 527.8284301757812 428.01416015625 527.0349731445312 427.62841796875 526.48974609375 C 427.24267578125 525.9445190429688 426.7047424316406 525.671875 426.0146484375 525.671875 Z"/>

                <!--javafx.scene.text.Text | => handled as Shape -->
                <path style="fill:#575757;stroke:transparent;stroke-width:1.0;"  transform="translate(394.609375,11.0) "  d="M 468.7392578125 526.3505859375 C 469.6865234375 526.3505859375 470.16015625 527.3483276367188 470.16015625 529.34375 C 470.16015625 531.2708129882812 469.6767578125 532.234375 468.7099609375 532.234375 C 467.7301330566406 532.234375 467.240234375 531.287109375 467.240234375 529.392578125 C 467.240234375 527.3645629882812 467.7398986816406 526.3505859375 468.7392578125 526.3505859375 ZM 463.8515625 525.6328125 L 461.4296875 526.3701171875 L 461.4296875 527.1318359375 L 463.05078125 526.6484375 L 463.05078125 532.087890625 L 461.46875 532.087890625 L 461.46875 532.791015625 L 465.4287109375 532.791015625 L 465.4287109375 532.087890625 L 463.8515625 532.087890625 L 463.8515625 525.6328125 ZM 468.783203125 525.671875 C 468.0182189941406 525.671875 467.43310546875 525.9892578125 467.02783203125 526.6240234375 C 466.62255859375 527.2587890625 466.419921875 528.1946411132812 466.419921875 529.431640625 C 466.419921875 530.5579223632812 466.6144104003906 531.4189453125 467.00341796875 532.0146484375 C 467.3924255371094 532.6103515625 467.93359375 532.908203125 468.626953125 532.908203125 C 469.369140625 532.908203125 469.9469299316406 532.5964965820312 470.3603515625 531.97314453125 C 470.7737731933594 531.3497924804688 470.98046875 530.4456176757812 470.98046875 529.2607421875 C 470.98046875 526.8681640625 470.248046875 525.671875 468.783203125 525.671875 Z"/>

                <!--javafx.scene.text.Text | => handled as Shape -->
                <path style="fill:#575757;stroke:transparent;stroke-width:1.0;"  transform="translate(434.609375,11.0) "  d="M 503.8515625 525.6328125 L 501.4296875 526.3701171875 L 501.4296875 527.1318359375 L 503.05078125 526.6484375 L 503.05078125 532.087890625 L 501.46875 532.087890625 L 501.46875 532.791015625 L 505.4287109375 532.791015625 L 505.4287109375 532.087890625 L 503.8515625 532.087890625 L 503.8515625 525.6328125 ZM 509.2421875 525.6328125 L 506.8203125 526.3701171875 L 506.8203125 527.1318359375 L 508.44140625 526.6484375 L 508.44140625 532.087890625 L 506.859375 532.087890625 L 506.859375 532.791015625 L 510.8193359375 532.791015625 L 510.8193359375 532.087890625 L 509.2421875 532.087890625 L 509.2421875 525.6328125 Z"/>

                <!--javafx.scene.text.Text | => handled as Shape -->
                <path style="fill:#575757;stroke:transparent;stroke-width:1.0;"  transform="translate(474.609375,11.0) "  d="M 543.8515625 525.6328125 L 541.4296875 526.3701171875 L 541.4296875 527.1318359375 L 543.05078125 526.6484375 L 543.05078125 532.087890625 L 541.46875 532.087890625 L 541.46875 532.791015625 L 545.4287109375 532.791015625 L 545.4287109375 532.087890625 L 543.8515625 532.087890625 L 543.8515625 525.6328125 ZM 548.7392578125 525.671875 C 548.0133666992188 525.671875 547.376953125 525.8850708007812 546.830078125 526.3115234375 L 546.830078125 527.1513671875 C 547.4030151367188 526.6174926757812 548.001953125 526.3505859375 548.626953125 526.3505859375 C 549.0534057617188 526.3505859375 549.3821411132812 526.4612426757812 549.61328125 526.6826171875 C 549.8444213867188 526.9039916992188 549.9599609375 527.2164916992188 549.9599609375 527.6201171875 C 549.9599609375 528.0139770507812 549.8484497070312 528.38427734375 549.62548828125 528.73095703125 C 549.4025268554688 529.07763671875 549.0305786132812 529.5114135742188 548.509765625 530.0322265625 L 546.46875 532.078125 L 546.46875 532.791015625 L 550.6875 532.791015625 L 550.6875 532.068359375 L 547.4306640625 532.068359375 L 547.4306640625 532.048828125 L 549.046875 530.4521484375 C 549.6881713867188 529.8173828125 550.1325073242188 529.2859497070312 550.3798828125 528.85791015625 C 550.6272583007812 528.4298706054688 550.7509765625 527.9912109375 550.7509765625 527.5419921875 C 550.7509765625 526.9723510742188 550.5719604492188 526.5182495117188 550.2138671875 526.1796875 C 549.8557739257812 525.8411254882812 549.3642578125 525.671875 548.7392578125 525.671875 Z"/>

                <!--javafx.scene.text.Text | => handled as Shape -->
                <path style="fill:#575757;stroke:transparent;stroke-width:1.0;"  transform="translate(514.609375,11.0) "  d="M 583.8515625 525.6328125 L 581.4296875 526.3701171875 L 581.4296875 527.1318359375 L 583.05078125 526.6484375 L 583.05078125 532.087890625 L 581.46875 532.087890625 L 581.46875 532.791015625 L 585.4287109375 532.791015625 L 585.4287109375 532.087890625 L 583.8515625 532.087890625 L 583.8515625 525.6328125 ZM 588.5 525.671875 C 587.8880004882812 525.671875 587.357421875 525.8053588867188 586.908203125 526.072265625 L 586.908203125 526.853515625 C 587.3444213867188 526.5182495117188 587.8082885742188 526.3505859375 588.2998046875 526.3505859375 C 589.1819458007812 526.3505859375 589.623046875 526.7477416992188 589.623046875 527.5419921875 C 589.623046875 528.4013671875 589.0452270507812 528.8310546875 587.8896484375 528.8310546875 L 587.337890625 528.8310546875 L 587.337890625 529.509765625 L 587.9189453125 529.509765625 C 589.2177734375 529.509765625 589.8671875 529.9671020507812 589.8671875 530.8818359375 C 589.8671875 531.2952270507812 589.7214965820312 531.6240234375 589.43017578125 531.8681640625 C 589.1388549804688 532.1123046875 588.7490234375 532.234375 588.2607421875 532.234375 C 587.6585083007812 532.234375 587.1181640625 532.0455932617188 586.6396484375 531.66796875 L 586.6396484375 532.5322265625 C 587.0335083007812 532.7828979492188 587.5625 532.908203125 588.2265625 532.908203125 C 588.9655151367188 532.908203125 589.5603637695312 532.71533203125 590.01123046875 532.32958984375 C 590.4620971679688 531.94384765625 590.6875 531.4368286132812 590.6875 530.80859375 C 590.6875 530.3528442382812 590.53857421875 529.9728393554688 590.24072265625 529.66845703125 C 589.94287109375 529.3640747070312 589.5416870117188 529.1875 589.037109375 529.138671875 L 589.037109375 529.119140625 C 589.974609375 528.85546875 590.443359375 528.2630004882812 590.443359375 527.341796875 C 590.443359375 526.853515625 590.2667846679688 526.453125 589.91357421875 526.140625 C 589.5603637695312 525.828125 589.0891723632812 525.671875 588.5 525.671875 Z"/>

            </g>
            <!--javafx.scene.chart.NumberAxis | axis | => handled as Region -->
            <g transform="translate(11.0,3.349609375) " >
                <g>
                    <rect width="51.0" height="472.0"/>
                    <line id="top" x1="0" y1="472.0"  x2="51.0" y2="472.0" style ="stroke:#000000;opacity:0.0;"/>
                    <line id="right" x1="51.0" y1="472.0"  x2="51.0" y2="0" style ="stroke:#C3C3C3;opacity:1.0;"/>
                    <line id="bottom" x1="51.0" y1="0"  x2="0" y2="0" style ="stroke:#000000;opacity:0.0;"/>
                    <line id="left" x1="0" y1="0"  x2="0" y2="472.0" style ="stroke:#000000;opacity:0.0;"/>
                </g>

                <!-- javafx.scene.control.Label | label axis-label | => handled as Label -->
                <text x="222.0" y="13.0" font-family="System" font-size="12.0" fill="#333333" text-anchor="MIDDLE">Stock</text>

                <!--javafx.scene.shape.Path | axis-tick-mark | => handled as Shape -->
                <path style="fill:transparent;stroke:#C3C3C3;stroke-width:1.0;"  transform="translate(41.5,-0.5) "  d="M 43.0 472.0 L 51.0 472.0 M 43.0 446.0 L 51.0 446.0 M 43.0 420.0 L 51.0 420.0 M 43.0 393.0 L 51.0 393.0 M 43.0 367.0 L 51.0 367.0 M 43.0 341.0 L 51.0 341.0 M 43.0 315.0 L 51.0 315.0 M 43.0 288.0 L 51.0 288.0 M 43.0 262.0 L 51.0 262.0 M 43.0 236.0 L 51.0 236.0 M 43.0 210.0 L 51.0 210.0 M 43.0 184.0 L 51.0 184.0 M 43.0 157.0 L 51.0 157.0 M 43.0 131.0 L 51.0 131.0 M 43.0 105.0 L 51.0 105.0 M 43.0 79.0 L 51.0 79.0 M 43.0 52.0 L 51.0 52.0 M 43.0 26.0 L 51.0 26.0 M 43.0 0.0 L 51.0 0.0 "/>

                <!--javafx.scene.shape.Path | axis-minor-tick-mark | => handled as Shape -->
                <path style="fill:transparent;stroke:#C3C3C3;stroke-width:1.0;"  transform="translate(44.5,4.5) "  d="M 46.0 467.0 L 50.0 467.0 M 46.0 462.0 L 50.0 462.0 M 46.0 456.0 L 50.0 456.0 M 46.0 451.0 L 50.0 451.0 M 46.0 441.0 L 50.0 441.0 M 46.0 435.0 L 50.0 435.0 M 46.0 430.0 L 50.0 430.0 M 46.0 425.0 L 50.0 425.0 M 46.0 414.0 L 50.0 414.0 M 46.0 409.0 L 50.0 409.0 M 46.0 404.0 L 50.0 404.0 M 46.0 399.0 L 50.0 399.0 M 46.0 388.0 L 50.0 388.0 M 46.0 383.0 L 50.0 383.0 M 46.0 378.0 L 50.0 378.0 M 46.0 372.0 L 50.0 372.0 M 46.0 362.0 L 50.0 362.0 M 46.0 357.0 L 50.0 357.0 M 46.0 351.0 L 50.0 351.0 M 46.0 346.0 L 50.0 346.0 M 46.0 336.0 L 50.0 336.0 M 46.0 330.0 L 50.0 330.0 M 46.0 325.0 L 50.0 325.0 M 46.0 320.0 L 50.0 320.0 M 46.0 309.0 L 50.0 309.0 M 46.0 304.0 L 50.0 304.0 M 46.0 299.0 L 50.0 299.0 M 46.0 294.0 L 50.0 294.0 M 46.0 283.0 L 50.0 283.0 M 46.0 278.0 L 50.0 278.0 M 46.0 273.0 L 50.0 273.0 M 46.0 267.0 L 50.0 267.0 M 46.0 257.0 L 50.0 257.0 M 46.0 252.0 L 50.0 252.0 M 46.0 246.0 L 50.0 246.0 M 46.0 241.0 L 50.0 241.0 M 46.0 231.0 L 50.0 231.0 M 46.0 226.0 L 50.0 226.0 M 46.0 220.0 L 50.0 220.0 M 46.0 215.0 L 50.0 215.0 M 46.0 205.0 L 50.0 205.0 M 46.0 199.0 L 50.0 199.0 M 46.0 194.0 L 50.0 194.0 M 46.0 189.0 L 50.0 189.0 M 46.0 178.0 L 50.0 178.0 M 46.0 173.0 L 50.0 173.0 M 46.0 168.0 L 50.0 168.0 M 46.0 163.0 L 50.0 163.0 M 46.0 152.0 L 50.0 152.0 M 46.0 147.0 L 50.0 147.0 M 46.0 142.0 L 50.0 142.0 M 46.0 136.0 L 50.0 136.0 M 46.0 126.0 L 50.0 126.0 M 46.0 121.0 L 50.0 121.0 M 46.0 115.0 L 50.0 115.0 M 46.0 110.0 L 50.0 110.0 M 46.0 100.0 L 50.0 100.0 M 46.0 94.0 L 50.0 94.0 M 46.0 89.0 L 50.0 89.0 M 46.0 84.0 L 50.0 84.0 M 46.0 73.0 L 50.0 73.0 M 46.0 68.0 L 50.0 68.0 M 46.0 63.0 L 50.0 63.0 M 46.0 58.0 L 50.0 58.0 M 46.0 47.0 L 50.0 47.0 M 46.0 42.0 L 50.0 42.0 M 46.0 37.0 L 50.0 37.0 M 46.0 31.0 L 50.0 31.0 M 46.0 21.0 L 50.0 21.0 M 46.0 16.0 L 50.0 16.0 M 46.0 10.0 L 50.0 10.0 M 46.0 5.0 L 50.0 5.0 "/>

                <!--javafx.scene.text.Text | => handled as Shape -->
                <path style="fill:#575757;stroke:transparent;stroke-width:1.0;"  transform="translate(27.05078125,465.349609375) "  d="M 45.7900390625 508.7001953125 C 46.7373046875 508.7001953125 47.2109375 509.6979064941406 47.2109375 511.693359375 C 47.2109375 513.6204223632812 46.7275390625 514.583984375 45.7607421875 514.583984375 C 44.78092575073242 514.583984375 44.291015625 513.63671875 44.291015625 511.7421875 C 44.291015625 509.7142028808594 44.79069137573242 508.7001953125 45.7900390625 508.7001953125 ZM 53.3486328125 508.7001953125 C 54.2958984375 508.7001953125 54.76953125 509.6979064941406 54.76953125 511.693359375 C 54.76953125 513.6204223632812 54.2861328125 514.583984375 53.3193359375 514.583984375 C 52.33951950073242 514.583984375 51.849609375 513.63671875 51.849609375 511.7421875 C 51.849609375 509.7142028808594 52.34928512573242 508.7001953125 53.3486328125 508.7001953125 ZM 45.833984375 508.021484375 C 45.06901168823242 508.021484375 44.48388671875 508.3388671875 44.07861328125 508.9736328125 C 43.67333984375 509.6083984375 43.470703125 510.5442810058594 43.470703125 511.78125 C 43.470703125 512.9075317382812 43.66520309448242 513.7685546875 44.05419921875 514.3642578125 C 44.44319534301758 514.9599609375 44.984375 515.2578125 45.677734375 515.2578125 C 46.419921875 515.2578125 46.99772262573242 514.9461059570312 47.4111328125 514.32275390625 C 47.82454299926758 513.6994018554688 48.03125 512.7952270507812 48.03125 511.6103515625 C 48.03125 509.2177734375 47.298828125 508.021484375 45.833984375 508.021484375 ZM 53.392578125 508.021484375 C 52.627601623535156 508.021484375 52.04248046875 508.3388671875 51.63720703125 508.9736328125 C 51.23193359375 509.6083984375 51.029296875 510.5442810058594 51.029296875 511.78125 C 51.029296875 512.9075317382812 51.22379684448242 513.7685546875 51.61279296875 514.3642578125 C 52.00178909301758 514.9599609375 52.54296875 515.2578125 53.236328125 515.2578125 C 53.978515625 515.2578125 54.556312561035156 514.9461059570312 54.9697265625 514.32275390625 C 55.38313674926758 513.6994018554688 55.58984375 512.7952270507812 55.58984375 511.6103515625 C 55.58984375 509.2177734375 54.857421875 508.021484375 53.392578125 508.021484375 ZM 49.203125 514.02734375 L 48.6318359375 516.4296875 L 49.203125 516.4296875 L 49.984375 514.02734375 Z"/>

                <!--javafx.scene.text.Text | => handled as Shape -->
                <path style="fill:#575757;stroke:transparent;stroke-width:1.0;"  transform="translate(27.05078125,439.349609375) "  d="M 45.7900390625 482.021484375 C 45.06412887573242 482.021484375 44.427734375 482.2347106933594 43.880859375 482.6611328125 L 43.880859375 483.5009765625 C 44.45377731323242 482.9671325683594 45.052734375 482.7001953125 45.677734375 482.7001953125 C 46.10416793823242 482.7001953125 46.43294143676758 482.8108825683594 46.6640625 483.0322265625 C 46.89518356323242 483.2535705566406 47.0107421875 483.5660705566406 47.0107421875 483.9697265625 C 47.0107421875 484.3636169433594 46.89925003051758 484.73388671875 46.67626953125 485.08056640625 C 46.45328903198242 485.42724609375 46.08137893676758 485.8609924316406 45.560546875 486.3818359375 L 43.51953125 488.427734375 L 43.51953125 489.140625 L 47.73828125 489.140625 L 47.73828125 488.41796875 L 44.4814453125 488.41796875 L 44.4814453125 488.3984375 L 46.09765625 486.8017578125 C 46.73893356323242 486.1669921875 47.18326950073242 485.6355895996094 47.4306640625 485.20751953125 C 47.67805862426758 484.7794494628906 47.8017578125 484.3408203125 47.8017578125 483.8916015625 C 47.8017578125 483.3219299316406 47.62272262573242 482.8678283691406 47.2646484375 482.529296875 C 46.90657424926758 482.1907653808594 46.4150390625 482.021484375 45.7900390625 482.021484375 ZM 51.6298828125 482.138671875 L 51.6298828125 485.6494140625 C 52.1669921875 485.6103515625 52.533203125 485.5908203125 52.728515625 485.5908203125 C 53.3046875 485.5908203125 53.74739456176758 485.7193908691406 54.056640625 485.9765625 C 54.365882873535156 486.2337341308594 54.5205078125 486.591796875 54.5205078125 487.05078125 C 54.5205078125 487.5130310058594 54.369140625 487.8841247558594 54.06640625 488.1640625 C 53.763671875 488.4440002441406 53.364906311035156 488.583984375 52.8701171875 488.583984375 C 52.37532424926758 488.583984375 51.888671875 488.4293518066406 51.41015625 488.1201171875 L 51.41015625 488.9697265625 C 51.72916793823242 489.1617736816406 52.21256637573242 489.2578125 52.8603515625 489.2578125 C 53.628578186035156 489.2578125 54.23323440551758 489.0511169433594 54.67431640625 488.6376953125 C 55.115394592285156 488.2242736816406 55.3359375 487.6790466308594 55.3359375 487.001953125 C 55.3359375 486.34765625 55.130859375 485.83251953125 54.720703125 485.45654296875 C 54.310546875 485.08056640625 53.731117248535156 484.892578125 52.982421875 484.892578125 C 52.80012893676758 484.892578125 52.6015625 484.8990783691406 52.38671875 484.912109375 L 52.38671875 482.861328125 L 55.0185546875 482.861328125 L 55.0185546875 482.138671875 ZM 49.203125 488.02734375 L 48.6318359375 490.4296875 L 49.203125 490.4296875 L 49.984375 488.02734375 Z"/>

                <!--javafx.scene.text.Text | => handled as Shape -->
                <path style="fill:#575757;stroke:transparent;stroke-width:1.0;"  transform="translate(27.05078125,413.349609375) "  d="M 53.3486328125 456.7001953125 C 54.2958984375 456.7001953125 54.76953125 457.6979064941406 54.76953125 459.693359375 C 54.76953125 461.6204528808594 54.2861328125 462.583984375 53.3193359375 462.583984375 C 52.33951950073242 462.583984375 51.849609375 461.63671875 51.849609375 459.7421875 C 51.849609375 457.7142028808594 52.34928512573242 456.7001953125 53.3486328125 456.7001953125 ZM 44.0712890625 456.138671875 L 44.0712890625 459.6494140625 C 44.6083984375 459.6103515625 44.974609375 459.5908203125 45.169921875 459.5908203125 C 45.74609375 459.5908203125 46.18880081176758 459.7193908691406 46.498046875 459.9765625 C 46.80729293823242 460.2337341308594 46.9619140625 460.591796875 46.9619140625 461.05078125 C 46.9619140625 461.5130310058594 46.810546875 461.8841247558594 46.5078125 462.1640625 C 46.205078125 462.4440002441406 45.80631637573242 462.583984375 45.3115234375 462.583984375 C 44.81673049926758 462.583984375 44.330078125 462.4293518066406 43.8515625 462.1201171875 L 43.8515625 462.9697265625 C 44.17057418823242 463.1617736816406 44.65397262573242 463.2578125 45.3017578125 463.2578125 C 46.06998825073242 463.2578125 46.67464065551758 463.0511169433594 47.11572265625 462.6376953125 C 47.55680465698242 462.2242736816406 47.77734375 461.6790466308594 47.77734375 461.001953125 C 47.77734375 460.34765625 47.572265625 459.83251953125 47.162109375 459.45654296875 C 46.751953125 459.08056640625 46.17252731323242 458.892578125 45.423828125 458.892578125 C 45.24153518676758 458.892578125 45.04296875 458.8990783691406 44.828125 458.912109375 L 44.828125 456.861328125 L 47.4599609375 456.861328125 L 47.4599609375 456.138671875 ZM 53.392578125 456.021484375 C 52.627601623535156 456.021484375 52.04248046875 456.3388671875 51.63720703125 456.9736328125 C 51.23193359375 457.6083984375 51.029296875 458.5442810058594 51.029296875 459.78125 C 51.029296875 460.9075622558594 51.22379684448242 461.7685546875 51.61279296875 462.3642578125 C 52.00178909301758 462.9599609375 52.54296875 463.2578125 53.236328125 463.2578125 C 53.978515625 463.2578125 54.556312561035156 462.9461364746094 54.9697265625 462.32275390625 C 55.38313674926758 461.6993713378906 55.58984375 460.7952575683594 55.58984375 459.6103515625 C 55.58984375 457.2177734375 54.857421875 456.021484375 53.392578125 456.021484375 ZM 49.203125 462.02734375 L 48.6318359375 464.4296875 L 49.203125 464.4296875 L 49.984375 462.02734375 Z"/>

                <!--javafx.scene.text.Text | => handled as Shape -->
                <path style="fill:#575757;stroke:transparent;stroke-width:1.0;"  transform="translate(27.05078125,386.349609375) "  d="M 43.470703125 429.138671875 L 43.470703125 429.861328125 L 47.0009765625 429.861328125 L 44.37890625 436.140625 L 45.208984375 436.140625 L 47.982421875 429.392578125 L 47.982421875 429.138671875 ZM 51.6298828125 429.138671875 L 51.6298828125 432.6494140625 C 52.1669921875 432.6103515625 52.533203125 432.5908203125 52.728515625 432.5908203125 C 53.3046875 432.5908203125 53.74739456176758 432.7193908691406 54.056640625 432.9765625 C 54.365882873535156 433.2337341308594 54.5205078125 433.591796875 54.5205078125 434.05078125 C 54.5205078125 434.5130310058594 54.369140625 434.8841247558594 54.06640625 435.1640625 C 53.763671875 435.4440002441406 53.364906311035156 435.583984375 52.8701171875 435.583984375 C 52.37532424926758 435.583984375 51.888671875 435.4293518066406 51.41015625 435.1201171875 L 51.41015625 435.9697265625 C 51.72916793823242 436.1617736816406 52.21256637573242 436.2578125 52.8603515625 436.2578125 C 53.628578186035156 436.2578125 54.23323440551758 436.0511169433594 54.67431640625 435.6376953125 C 55.115394592285156 435.2242736816406 55.3359375 434.6790466308594 55.3359375 434.001953125 C 55.3359375 433.34765625 55.130859375 432.83251953125 54.720703125 432.45654296875 C 54.310546875 432.08056640625 53.731117248535156 431.892578125 52.982421875 431.892578125 C 52.80012893676758 431.892578125 52.6015625 431.8990783691406 52.38671875 431.912109375 L 52.38671875 429.861328125 L 55.0185546875 429.861328125 L 55.0185546875 429.138671875 ZM 49.203125 435.02734375 L 48.6318359375 437.4296875 L 49.203125 437.4296875 L 49.984375 435.02734375 Z"/>

                <!--javafx.scene.text.Text | => handled as Shape -->
                <path style="fill:#575757;stroke:transparent;stroke-width:1.0;"  transform="translate(21.66015625,360.349609375) "  d="M 45.7900390625 403.7001953125 C 46.7373046875 403.7001953125 47.2109375 404.6979064941406 47.2109375 406.693359375 C 47.2109375 408.6204528808594 46.7275390625 409.583984375 45.7607421875 409.583984375 C 44.78092575073242 409.583984375 44.291015625 408.63671875 44.291015625 406.7421875 C 44.291015625 404.7142028808594 44.79069137573242 403.7001953125 45.7900390625 403.7001953125 ZM 53.3486328125 403.7001953125 C 54.2958984375 403.7001953125 54.76953125 404.6979064941406 54.76953125 406.693359375 C 54.76953125 408.6204528808594 54.2861328125 409.583984375 53.3193359375 409.583984375 C 52.33951950073242 409.583984375 51.849609375 408.63671875 51.849609375 406.7421875 C 51.849609375 404.7142028808594 52.34928512573242 403.7001953125 53.3486328125 403.7001953125 ZM 40.90234375 402.982421875 L 38.48046875 403.7197265625 L 38.48046875 404.4814453125 L 40.1015625 403.998046875 L 40.1015625 409.4375 L 38.51953125 409.4375 L 38.51953125 410.140625 L 42.4794921875 410.140625 L 42.4794921875 409.4375 L 40.90234375 409.4375 L 40.90234375 402.982421875 ZM 45.833984375 403.021484375 C 45.06901168823242 403.021484375 44.48388671875 403.3388671875 44.07861328125 403.9736328125 C 43.67333984375 404.6083984375 43.470703125 405.5442810058594 43.470703125 406.78125 C 43.470703125 407.9075622558594 43.66520309448242 408.7685546875 44.05419921875 409.3642578125 C 44.44319534301758 409.9599609375 44.984375 410.2578125 45.677734375 410.2578125 C 46.419921875 410.2578125 46.997718811035156 409.9461364746094 47.4111328125 409.32275390625 C 47.82454299926758 408.6993713378906 48.03125 407.7952575683594 48.03125 406.6103515625 C 48.03125 404.2177734375 47.298828125 403.021484375 45.833984375 403.021484375 ZM 53.392578125 403.021484375 C 52.627601623535156 403.021484375 52.04248046875 403.3388671875 51.63720703125 403.9736328125 C 51.23193359375 404.6083984375 51.029296875 405.5442810058594 51.029296875 406.78125 C 51.029296875 407.9075622558594 51.22379684448242 408.7685546875 51.61279296875 409.3642578125 C 52.00178909301758 409.9599609375 52.54296875 410.2578125 53.236328125 410.2578125 C 53.978515625 410.2578125 54.556312561035156 409.9461364746094 54.9697265625 409.32275390625 C 55.38313674926758 408.6993713378906 55.58984375 407.7952575683594 55.58984375 406.6103515625 C 55.58984375 404.2177734375 54.857421875 403.021484375 53.392578125 403.021484375 ZM 49.203125 409.02734375 L 48.6318359375 411.4296875 L 49.203125 411.4296875 L 49.984375 409.02734375 Z"/>

                <!--javafx.scene.text.Text | => handled as Shape -->
                <path style="fill:#575757;stroke:transparent;stroke-width:1.0;"  transform="translate(21.66015625,334.349609375) "  d="M 40.90234375 376.982421875 L 38.48046875 377.7197265625 L 38.48046875 378.4814453125 L 40.1015625 377.998046875 L 40.1015625 383.4375 L 38.51953125 383.4375 L 38.51953125 384.140625 L 42.4794921875 384.140625 L 42.4794921875 383.4375 L 40.90234375 383.4375 L 40.90234375 376.982421875 ZM 45.7900390625 377.021484375 C 45.06412887573242 377.021484375 44.427734375 377.2347106933594 43.880859375 377.6611328125 L 43.880859375 378.5009765625 C 44.45377731323242 377.9671325683594 45.052734375 377.7001953125 45.677734375 377.7001953125 C 46.104164123535156 377.7001953125 46.43294143676758 377.8108825683594 46.6640625 378.0322265625 C 46.895179748535156 378.2535705566406 47.0107421875 378.5660705566406 47.0107421875 378.9697265625 C 47.0107421875 379.3636169433594 46.89925003051758 379.73388671875 46.67626953125 380.08056640625 C 46.453285217285156 380.42724609375 46.08137893676758 380.8609924316406 45.560546875 381.3818359375 L 43.51953125 383.427734375 L 43.51953125 384.140625 L 47.73828125 384.140625 L 47.73828125 383.41796875 L 44.4814453125 383.41796875 L 44.4814453125 383.3984375 L 46.09765625 381.8017578125 C 46.738929748535156 381.1669921875 47.183265686035156 380.6355895996094 47.4306640625 380.20751953125 C 47.67805862426758 379.7794494628906 47.8017578125 379.3408203125 47.8017578125 378.8916015625 C 47.8017578125 378.3219299316406 47.622718811035156 377.8678283691406 47.2646484375 377.529296875 C 46.90657424926758 377.1907653808594 46.4150390625 377.021484375 45.7900390625 377.021484375 ZM 51.6298828125 377.138671875 L 51.6298828125 380.6494140625 C 52.1669921875 380.6103515625 52.533203125 380.5908203125 52.728515625 380.5908203125 C 53.3046875 380.5908203125 53.747398376464844 380.7193908691406 54.056640625 380.9765625 C 54.365882873535156 381.2337341308594 54.5205078125 381.591796875 54.5205078125 382.05078125 C 54.5205078125 382.5130310058594 54.369140625 382.8841247558594 54.06640625 383.1640625 C 53.763671875 383.4440002441406 53.364906311035156 383.583984375 52.8701171875 383.583984375 C 52.37532424926758 383.583984375 51.888671875 383.4293518066406 51.41015625 383.1201171875 L 51.41015625 383.9697265625 C 51.72916793823242 384.1617736816406 52.21256637573242 384.2578125 52.8603515625 384.2578125 C 53.628578186035156 384.2578125 54.233238220214844 384.0511169433594 54.67431640625 383.6376953125 C 55.115394592285156 383.2242736816406 55.3359375 382.6790466308594 55.3359375 382.001953125 C 55.3359375 381.34765625 55.130859375 380.83251953125 54.720703125 380.45654296875 C 54.310546875 380.08056640625 53.731117248535156 379.892578125 52.982421875 379.892578125 C 52.80012893676758 379.892578125 52.6015625 379.8990783691406 52.38671875 379.912109375 L 52.38671875 377.861328125 L 55.0185546875 377.861328125 L 55.0185546875 377.138671875 ZM 49.203125 383.02734375 L 48.6318359375 385.4296875 L 49.203125 385.4296875 L 49.984375 383.02734375 Z"/>

                <!--javafx.scene.text.Text | => handled as Shape -->
                <path style="fill:#575757;stroke:transparent;stroke-width:1.0;"  transform="translate(21.66015625,308.349609375) "  d="M 53.3486328125 351.7001953125 C 54.2958984375 351.7001953125 54.76953125 352.6979064941406 54.76953125 354.693359375 C 54.76953125 356.6204528808594 54.2861328125 357.583984375 53.3193359375 357.583984375 C 52.33951950073242 357.583984375 51.849609375 356.63671875 51.849609375 354.7421875 C 51.849609375 352.7142028808594 52.34928512573242 351.7001953125 53.3486328125 351.7001953125 ZM 40.90234375 350.982421875 L 38.48046875 351.7197265625 L 38.48046875 352.4814453125 L 40.1015625 351.998046875 L 40.1015625 357.4375 L 38.51953125 357.4375 L 38.51953125 358.140625 L 42.4794921875 358.140625 L 42.4794921875 357.4375 L 40.90234375 357.4375 L 40.90234375 350.982421875 ZM 44.0712890625 351.138671875 L 44.0712890625 354.6494140625 C 44.6083984375 354.6103515625 44.974609375 354.5908203125 45.169921875 354.5908203125 C 45.74609375 354.5908203125 46.18880081176758 354.7193908691406 46.498046875 354.9765625 C 46.807289123535156 355.2337341308594 46.9619140625 355.591796875 46.9619140625 356.05078125 C 46.9619140625 356.5130310058594 46.810546875 356.8841247558594 46.5078125 357.1640625 C 46.205078125 357.4440002441406 45.806312561035156 357.583984375 45.3115234375 357.583984375 C 44.81673049926758 357.583984375 44.330078125 357.4293518066406 43.8515625 357.1201171875 L 43.8515625 357.9697265625 C 44.17057418823242 358.1617736816406 44.65397262573242 358.2578125 45.3017578125 358.2578125 C 46.069984436035156 358.2578125 46.67464065551758 358.0511169433594 47.11572265625 357.6376953125 C 47.556800842285156 357.2242736816406 47.77734375 356.6790466308594 47.77734375 356.001953125 C 47.77734375 355.34765625 47.572265625 354.83251953125 47.162109375 354.45654296875 C 46.751953125 354.08056640625 46.172523498535156 353.892578125 45.423828125 353.892578125 C 45.24153518676758 353.892578125 45.04296875 353.8990783691406 44.828125 353.912109375 L 44.828125 351.861328125 L 47.4599609375 351.861328125 L 47.4599609375 351.138671875 ZM 53.392578125 351.021484375 C 52.627601623535156 351.021484375 52.04248046875 351.3388671875 51.63720703125 351.9736328125 C 51.23193359375 352.6083984375 51.029296875 353.5442810058594 51.029296875 354.78125 C 51.029296875 355.9075622558594 51.22379684448242 356.7685546875 51.61279296875 357.3642578125 C 52.00178909301758 357.9599609375 52.54296875 358.2578125 53.236328125 358.2578125 C 53.978515625 358.2578125 54.556312561035156 357.9461364746094 54.9697265625 357.32275390625 C 55.38313674926758 356.6993713378906 55.58984375 355.7952575683594 55.58984375 354.6103515625 C 55.58984375 352.2177734375 54.857421875 351.021484375 53.392578125 351.021484375 ZM 49.203125 357.02734375 L 48.6318359375 359.4296875 L 49.203125 359.4296875 L 49.984375 357.02734375 Z"/>

                <!--javafx.scene.text.Text | => handled as Shape -->
                <path style="fill:#575757;stroke:transparent;stroke-width:1.0;"  transform="translate(21.66015625,281.349609375) "  d="M 40.90234375 323.982421875 L 38.48046875 324.7197265625 L 38.48046875 325.4814453125 L 40.1015625 324.998046875 L 40.1015625 330.4375 L 38.51953125 330.4375 L 38.51953125 331.140625 L 42.4794921875 331.140625 L 42.4794921875 330.4375 L 40.90234375 330.4375 L 40.90234375 323.982421875 ZM 43.470703125 324.138671875 L 43.470703125 324.861328125 L 47.0009765625 324.861328125 L 44.37890625 331.140625 L 45.208984375 331.140625 L 47.982421875 324.392578125 L 47.982421875 324.138671875 ZM 51.6298828125 324.138671875 L 51.6298828125 327.6494140625 C 52.1669921875 327.6103515625 52.533203125 327.5908203125 52.728515625 327.5908203125 C 53.3046875 327.5908203125 53.747398376464844 327.7193908691406 54.056640625 327.9765625 C 54.365882873535156 328.2337341308594 54.5205078125 328.591796875 54.5205078125 329.05078125 C 54.5205078125 329.5130310058594 54.369140625 329.8841247558594 54.06640625 330.1640625 C 53.763671875 330.4440002441406 53.364906311035156 330.583984375 52.8701171875 330.583984375 C 52.37532424926758 330.583984375 51.888671875 330.4293518066406 51.41015625 330.1201171875 L 51.41015625 330.9697265625 C 51.72916793823242 331.1617736816406 52.21256637573242 331.2578125 52.8603515625 331.2578125 C 53.628578186035156 331.2578125 54.233238220214844 331.0511169433594 54.67431640625 330.6376953125 C 55.115394592285156 330.2242736816406 55.3359375 329.6790466308594 55.3359375 329.001953125 C 55.3359375 328.34765625 55.130859375 327.83251953125 54.720703125 327.45654296875 C 54.310546875 327.08056640625 53.731117248535156 326.892578125 52.982421875 326.892578125 C 52.80012893676758 326.892578125 52.6015625 326.8990783691406 52.38671875 326.912109375 L 52.38671875 324.861328125 L 55.0185546875 324.861328125 L 55.0185546875 324.138671875 ZM 49.203125 330.02734375 L 48.6318359375 332.4296875 L 49.203125 332.4296875 L 49.984375 330.02734375 Z"/>

                <!--javafx.scene.text.Text | => handled as Shape -->
                <path style="fill:#575757;stroke:transparent;stroke-width:1.0;"  transform="translate(21.66015625,255.349609375) "  d="M 45.7900390625 298.7001953125 C 46.7373046875 298.7001953125 47.2109375 299.6979064941406 47.2109375 301.693359375 C 47.2109375 303.6204528808594 46.7275390625 304.583984375 45.7607421875 304.583984375 C 44.78092575073242 304.583984375 44.291015625 303.63671875 44.291015625 301.7421875 C 44.291015625 299.7142028808594 44.79069137573242 298.7001953125 45.7900390625 298.7001953125 ZM 53.3486328125 298.7001953125 C 54.2958984375 298.7001953125 54.76953125 299.6979064941406 54.76953125 301.693359375 C 54.76953125 303.6204528808594 54.2861328125 304.583984375 53.3193359375 304.583984375 C 52.33951950073242 304.583984375 51.849609375 303.63671875 51.849609375 301.7421875 C 51.849609375 299.7142028808594 52.34928512573242 298.7001953125 53.3486328125 298.7001953125 ZM 40.3994140625 298.021484375 C 39.67350387573242 298.021484375 39.037109375 298.2347106933594 38.490234375 298.6611328125 L 38.490234375 299.5009765625 C 39.06315231323242 298.9671325683594 39.662109375 298.7001953125 40.287109375 298.7001953125 C 40.71354293823242 298.7001953125 41.04231643676758 298.8108825683594 41.2734375 299.0322265625 C 41.50455856323242 299.2535705566406 41.6201171875 299.5660705566406 41.6201171875 299.9697265625 C 41.6201171875 300.3636169433594 41.50862503051758 300.73388671875 41.28564453125 301.08056640625 C 41.06266403198242 301.42724609375 40.69075393676758 301.8609924316406 40.169921875 302.3818359375 L 38.12890625 304.427734375 L 38.12890625 305.140625 L 42.34765625 305.140625 L 42.34765625 304.41796875 L 39.0908203125 304.41796875 L 39.0908203125 304.3984375 L 40.70703125 302.8017578125 C 41.34830856323242 302.1669921875 41.79264450073242 301.6355895996094 42.0400390625 301.20751953125 C 42.28743362426758 300.7794494628906 42.4111328125 300.3408203125 42.4111328125 299.8916015625 C 42.4111328125 299.3219299316406 42.23209762573242 298.8678283691406 41.8740234375 298.529296875 C 41.51594924926758 298.1907653808594 41.0244140625 298.021484375 40.3994140625 298.021484375 ZM 45.833984375 298.021484375 C 45.06901168823242 298.021484375 44.48388671875 298.3388671875 44.07861328125 298.9736328125 C 43.67333984375 299.6083984375 43.470703125 300.5442810058594 43.470703125 301.78125 C 43.470703125 302.9075622558594 43.66520309448242 303.7685546875 44.05419921875 304.3642578125 C 44.44319534301758 304.9599609375 44.984375 305.2578125 45.677734375 305.2578125 C 46.419921875 305.2578125 46.997718811035156 304.9461364746094 47.4111328125 304.32275390625 C 47.82454299926758 303.6993713378906 48.03125 302.7952575683594 48.03125 301.6103515625 C 48.03125 299.2177734375 47.298828125 298.021484375 45.833984375 298.021484375 ZM 53.392578125 298.021484375 C 52.627601623535156 298.021484375 52.04248046875 298.3388671875 51.63720703125 298.9736328125 C 51.23193359375 299.6083984375 51.029296875 300.5442810058594 51.029296875 301.78125 C 51.029296875 302.9075622558594 51.22379684448242 303.7685546875 51.61279296875 304.3642578125 C 52.00178909301758 304.9599609375 52.54296875 305.2578125 53.236328125 305.2578125 C 53.978515625 305.2578125 54.556312561035156 304.9461364746094 54.9697265625 304.32275390625 C 55.38313674926758 303.6993713378906 55.58984375 302.7952575683594 55.58984375 301.6103515625 C 55.58984375 299.2177734375 54.857421875 298.021484375 53.392578125 298.021484375 ZM 49.203125 304.02734375 L 48.6318359375 306.4296875 L 49.203125 306.4296875 L 49.984375 304.02734375 Z"/>

                <!--javafx.scene.text.Text | => handled as Shape -->
                <path style="fill:#575757;stroke:transparent;stroke-width:1.0;"  transform="translate(21.66015625,229.349609375) "  d="M 40.3994140625 272.021484375 C 39.67350387573242 272.021484375 39.037109375 272.2347106933594 38.490234375 272.6611328125 L 38.490234375 273.5009765625 C 39.06315231323242 272.9671325683594 39.662109375 272.7001953125 40.287109375 272.7001953125 C 40.71354293823242 272.7001953125 41.04231643676758 272.8108825683594 41.2734375 273.0322265625 C 41.50455856323242 273.2535705566406 41.6201171875 273.5660705566406 41.6201171875 273.9697265625 C 41.6201171875 274.3636169433594 41.50862503051758 274.73388671875 41.28564453125 275.08056640625 C 41.06266403198242 275.42724609375 40.69075393676758 275.8609924316406 40.169921875 276.3818359375 L 38.12890625 278.427734375 L 38.12890625 279.140625 L 42.34765625 279.140625 L 42.34765625 278.41796875 L 39.0908203125 278.41796875 L 39.0908203125 278.3984375 L 40.70703125 276.8017578125 C 41.34830856323242 276.1669921875 41.79264450073242 275.6355895996094 42.0400390625 275.20751953125 C 42.28743362426758 274.7794494628906 42.4111328125 274.3408203125 42.4111328125 273.8916015625 C 42.4111328125 273.3219299316406 42.23209762573242 272.8678283691406 41.8740234375 272.529296875 C 41.51594924926758 272.1907653808594 41.0244140625 272.021484375 40.3994140625 272.021484375 ZM 45.7900390625 272.021484375 C 45.06412887573242 272.021484375 44.427734375 272.2347106933594 43.880859375 272.6611328125 L 43.880859375 273.5009765625 C 44.45377731323242 272.9671325683594 45.052734375 272.7001953125 45.677734375 272.7001953125 C 46.104164123535156 272.7001953125 46.43294143676758 272.8108825683594 46.6640625 273.0322265625 C 46.895179748535156 273.2535705566406 47.0107421875 273.5660705566406 47.0107421875 273.9697265625 C 47.0107421875 274.3636169433594 46.89925003051758 274.73388671875 46.67626953125 275.08056640625 C 46.453285217285156 275.42724609375 46.08137893676758 275.8609924316406 45.560546875 276.3818359375 L 43.51953125 278.427734375 L 43.51953125 279.140625 L 47.73828125 279.140625 L 47.73828125 278.41796875 L 44.4814453125 278.41796875 L 44.4814453125 278.3984375 L 46.09765625 276.8017578125 C 46.738929748535156 276.1669921875 47.183265686035156 275.6355895996094 47.4306640625 275.20751953125 C 47.67805862426758 274.7794494628906 47.8017578125 274.3408203125 47.8017578125 273.8916015625 C 47.8017578125 273.3219299316406 47.622718811035156 272.8678283691406 47.2646484375 272.529296875 C 46.90657424926758 272.1907653808594 46.4150390625 272.021484375 45.7900390625 272.021484375 ZM 51.6298828125 272.138671875 L 51.6298828125 275.6494140625 C 52.1669921875 275.6103515625 52.533203125 275.5908203125 52.728515625 275.5908203125 C 53.3046875 275.5908203125 53.747398376464844 275.7193908691406 54.056640625 275.9765625 C 54.365882873535156 276.2337341308594 54.5205078125 276.591796875 54.5205078125 277.05078125 C 54.5205078125 277.5130310058594 54.369140625 277.8841247558594 54.06640625 278.1640625 C 53.763671875 278.4440002441406 53.364906311035156 278.583984375 52.8701171875 278.583984375 C 52.37532424926758 278.583984375 51.888671875 278.4293518066406 51.41015625 278.1201171875 L 51.41015625 278.9697265625 C 51.72916793823242 279.1617736816406 52.21256637573242 279.2578125 52.8603515625 279.2578125 C 53.628578186035156 279.2578125 54.233238220214844 279.0511169433594 54.67431640625 278.6376953125 C 55.115394592285156 278.2242736816406 55.3359375 277.6790466308594 55.3359375 277.001953125 C 55.3359375 276.34765625 55.130859375 275.83251953125 54.720703125 275.45654296875 C 54.310546875 275.08056640625 53.731117248535156 274.892578125 52.982421875 274.892578125 C 52.80012893676758 274.892578125 52.6015625 274.8990783691406 52.38671875 274.912109375 L 52.38671875 272.861328125 L 55.0185546875 272.861328125 L 55.0185546875 272.138671875 ZM 49.203125 278.02734375 L 48.6318359375 280.4296875 L 49.203125 280.4296875 L 49.984375 278.02734375 Z"/>

                <!--javafx.scene.text.Text | => handled as Shape -->
                <path style="fill:#575757;stroke:transparent;stroke-width:1.0;"  transform="translate(21.66015625,203.349609375) "  d="M 53.3486328125 246.7001953125 C 54.2958984375 246.7001953125 54.76953125 247.6979217529297 54.76953125 249.693359375 C 54.76953125 251.6204376220703 54.2861328125 252.583984375 53.3193359375 252.583984375 C 52.33951950073242 252.583984375 51.849609375 251.63671875 51.849609375 249.7421875 C 51.849609375 247.7141876220703 52.34928512573242 246.7001953125 53.3486328125 246.7001953125 ZM 40.3994140625 246.021484375 C 39.67350387573242 246.021484375 39.037109375 246.2346954345703 38.490234375 246.6611328125 L 38.490234375 247.5009765625 C 39.06315231323242 246.9671173095703 39.662109375 246.7001953125 40.287109375 246.7001953125 C 40.71354293823242 246.7001953125 41.04231643676758 246.8108673095703 41.2734375 247.0322265625 C 41.50455856323242 247.2535858154297 41.6201171875 247.5660858154297 41.6201171875 247.9697265625 C 41.6201171875 248.3636016845703 41.50862503051758 248.73388671875 41.28564453125 249.08056640625 C 41.06266403198242 249.42724609375 40.69075393676758 249.8610076904297 40.169921875 250.3818359375 L 38.12890625 252.427734375 L 38.12890625 253.140625 L 42.34765625 253.140625 L 42.34765625 252.41796875 L 39.0908203125 252.41796875 L 39.0908203125 252.3984375 L 40.70703125 250.8017578125 C 41.34830856323242 250.1669921875 41.79264450073242 249.6355743408203 42.0400390625 249.20751953125 C 42.28743362426758 248.7794647216797 42.4111328125 248.3408203125 42.4111328125 247.8916015625 C 42.4111328125 247.3219451904297 42.23209762573242 246.8678436279297 41.8740234375 246.529296875 C 41.51594924926758 246.1907501220703 41.0244140625 246.021484375 40.3994140625 246.021484375 ZM 44.0712890625 246.138671875 L 44.0712890625 249.6494140625 C 44.6083984375 249.6103515625 44.974609375 249.5908203125 45.169921875 249.5908203125 C 45.74609375 249.5908203125 46.18880081176758 249.7194061279297 46.498046875 249.9765625 C 46.807289123535156 250.2337188720703 46.9619140625 250.591796875 46.9619140625 251.05078125 C 46.9619140625 251.5130157470703 46.810546875 251.8841094970703 46.5078125 252.1640625 C 46.205078125 252.4440155029297 45.806312561035156 252.583984375 45.3115234375 252.583984375 C 44.81673049926758 252.583984375 44.330078125 252.4293670654297 43.8515625 252.1201171875 L 43.8515625 252.9697265625 C 44.17057418823242 253.1617889404297 44.65397262573242 253.2578125 45.3017578125 253.2578125 C 46.069984436035156 253.2578125 46.67464065551758 253.0511016845703 47.11572265625 252.6376953125 C 47.556800842285156 252.2242889404297 47.77734375 251.6790313720703 47.77734375 251.001953125 C 47.77734375 250.34765625 47.572265625 249.83251953125 47.162109375 249.45654296875 C 46.751953125 249.08056640625 46.172523498535156 248.892578125 45.423828125 248.892578125 C 45.24153518676758 248.892578125 45.04296875 248.8990936279297 44.828125 248.912109375 L 44.828125 246.861328125 L 47.4599609375 246.861328125 L 47.4599609375 246.138671875 ZM 53.392578125 246.021484375 C 52.627601623535156 246.021484375 52.04248046875 246.3388671875 51.63720703125 246.9736328125 C 51.23193359375 247.6083984375 51.029296875 248.5442657470703 51.029296875 249.78125 C 51.029296875 250.9075469970703 51.22379684448242 251.7685546875 51.61279296875 252.3642578125 C 52.00178909301758 252.9599609375 52.54296875 253.2578125 53.236328125 253.2578125 C 53.978515625 253.2578125 54.556312561035156 252.9461212158203 54.9697265625 252.32275390625 C 55.38313674926758 251.6993865966797 55.58984375 250.7952423095703 55.58984375 249.6103515625 C 55.58984375 247.2177734375 54.857421875 246.021484375 53.392578125 246.021484375 ZM 49.203125 252.02734375 L 48.6318359375 254.4296875 L 49.203125 254.4296875 L 49.984375 252.02734375 Z"/>

                <!--javafx.scene.text.Text | => handled as Shape -->
                <path style="fill:#575757;stroke:transparent;stroke-width:1.0;"  transform="translate(21.66015625,177.349609375) "  d="M 40.3994140625 220.021484375 C 39.67350387573242 220.021484375 39.037109375 220.2346954345703 38.490234375 220.6611328125 L 38.490234375 221.5009765625 C 39.06315231323242 220.9671173095703 39.662109375 220.7001953125 40.287109375 220.7001953125 C 40.71354293823242 220.7001953125 41.04231643676758 220.8108673095703 41.2734375 221.0322265625 C 41.50455856323242 221.2535858154297 41.6201171875 221.5660858154297 41.6201171875 221.9697265625 C 41.6201171875 222.3636016845703 41.50862503051758 222.73388671875 41.28564453125 223.08056640625 C 41.06266403198242 223.42724609375 40.69075393676758 223.8610076904297 40.169921875 224.3818359375 L 38.12890625 226.427734375 L 38.12890625 227.140625 L 42.34765625 227.140625 L 42.34765625 226.41796875 L 39.0908203125 226.41796875 L 39.0908203125 226.3984375 L 40.70703125 224.8017578125 C 41.34830856323242 224.1669921875 41.79264450073242 223.6355743408203 42.0400390625 223.20751953125 C 42.28743362426758 222.7794647216797 42.4111328125 222.3408203125 42.4111328125 221.8916015625 C 42.4111328125 221.3219451904297 42.23209762573242 220.8678436279297 41.8740234375 220.529296875 C 41.51594924926758 220.1907501220703 41.0244140625 220.021484375 40.3994140625 220.021484375 ZM 43.470703125 220.138671875 L 43.470703125 220.861328125 L 47.0009765625 220.861328125 L 44.37890625 227.140625 L 45.208984375 227.140625 L 47.982421875 220.392578125 L 47.982421875 220.138671875 ZM 51.6298828125 220.138671875 L 51.6298828125 223.6494140625 C 52.1669921875 223.6103515625 52.533203125 223.5908203125 52.728515625 223.5908203125 C 53.3046875 223.5908203125 53.747398376464844 223.7194061279297 54.056640625 223.9765625 C 54.365882873535156 224.2337188720703 54.5205078125 224.591796875 54.5205078125 225.05078125 C 54.5205078125 225.5130157470703 54.369140625 225.8841094970703 54.06640625 226.1640625 C 53.763671875 226.4440155029297 53.364906311035156 226.583984375 52.8701171875 226.583984375 C 52.37532424926758 226.583984375 51.888671875 226.4293670654297 51.41015625 226.1201171875 L 51.41015625 226.9697265625 C 51.72916793823242 227.1617889404297 52.21256637573242 227.2578125 52.8603515625 227.2578125 C 53.628578186035156 227.2578125 54.233238220214844 227.0511016845703 54.67431640625 226.6376953125 C 55.115394592285156 226.2242889404297 55.3359375 225.6790313720703 55.3359375 225.001953125 C 55.3359375 224.34765625 55.130859375 223.83251953125 54.720703125 223.45654296875 C 54.310546875 223.08056640625 53.731117248535156 222.892578125 52.982421875 222.892578125 C 52.80012893676758 222.892578125 52.6015625 222.8990936279297 52.38671875 222.912109375 L 52.38671875 220.861328125 L 55.0185546875 220.861328125 L 55.0185546875 220.138671875 ZM 49.203125 226.02734375 L 48.6318359375 228.4296875 L 49.203125 228.4296875 L 49.984375 226.02734375 Z"/>

                <!--javafx.scene.text.Text | => handled as Shape -->
                <path style="fill:#575757;stroke:transparent;stroke-width:1.0;"  transform="translate(21.66015625,150.349609375) "  d="M 45.7900390625 193.7001953125 C 46.7373046875 193.7001953125 47.2109375 194.6979217529297 47.2109375 196.693359375 C 47.2109375 198.6204376220703 46.7275390625 199.583984375 45.7607421875 199.583984375 C 44.78092575073242 199.583984375 44.291015625 198.63671875 44.291015625 196.7421875 C 44.291015625 194.7141876220703 44.79069137573242 193.7001953125 45.7900390625 193.7001953125 ZM 53.3486328125 193.7001953125 C 54.2958984375 193.7001953125 54.76953125 194.6979217529297 54.76953125 196.693359375 C 54.76953125 198.6204376220703 54.2861328125 199.583984375 53.3193359375 199.583984375 C 52.33951950073242 199.583984375 51.849609375 198.63671875 51.849609375 196.7421875 C 51.849609375 194.7141876220703 52.34928512573242 193.7001953125 53.3486328125 193.7001953125 ZM 40.16015625 193.021484375 C 39.54817581176758 193.021484375 39.017578125 193.1549530029297 38.568359375 193.421875 L 38.568359375 194.203125 C 39.00455856323242 193.8678436279297 39.46842575073242 193.7001953125 39.9599609375 193.7001953125 C 40.84212112426758 193.7001953125 41.283203125 194.0973358154297 41.283203125 194.8916015625 C 41.283203125 195.7509765625 40.70540237426758 196.1806640625 39.5498046875 196.1806640625 L 38.998046875 196.1806640625 L 38.998046875 196.859375 L 39.5791015625 196.859375 C 40.8779296875 196.859375 41.52734375 197.3167266845703 41.52734375 198.2314453125 C 41.52734375 198.6448516845703 41.38167190551758 198.9736328125 41.09033203125 199.2177734375 C 40.79899215698242 199.4619140625 40.4091796875 199.583984375 39.9208984375 199.583984375 C 39.31868362426758 199.583984375 38.7783203125 199.3951873779297 38.2998046875 199.017578125 L 38.2998046875 199.8818359375 C 38.69368362426758 200.1324920654297 39.22265625 200.2578125 39.88671875 200.2578125 C 40.62565231323242 200.2578125 41.22053909301758 200.06494140625 41.67138671875 199.67919921875 C 42.12223434448242 199.29345703125 42.34765625 198.7864532470703 42.34765625 198.158203125 C 42.34765625 197.7024688720703 42.19873046875 197.3224334716797 41.90087890625 197.01806640625 C 41.60302734375 196.7136993408203 41.20182418823242 196.537109375 40.697265625 196.48828125 L 40.697265625 196.46875 C 41.634765625 196.205078125 42.103515625 195.6126251220703 42.103515625 194.69140625 C 42.103515625 194.203125 41.92692184448242 193.802734375 41.57373046875 193.490234375 C 41.22053909301758 193.177734375 40.74934768676758 193.021484375 40.16015625 193.021484375 ZM 45.833984375 193.021484375 C 45.06901168823242 193.021484375 44.48388671875 193.3388671875 44.07861328125 193.9736328125 C 43.67333984375 194.6083984375 43.470703125 195.5442657470703 43.470703125 196.78125 C 43.470703125 197.9075469970703 43.66520309448242 198.7685546875 44.05419921875 199.3642578125 C 44.44319534301758 199.9599609375 44.984375 200.2578125 45.677734375 200.2578125 C 46.419921875 200.2578125 46.997718811035156 199.9461212158203 47.4111328125 199.32275390625 C 47.82454299926758 198.6993865966797 48.03125 197.7952423095703 48.03125 196.6103515625 C 48.03125 194.2177734375 47.298828125 193.021484375 45.833984375 193.021484375 ZM 53.392578125 193.021484375 C 52.627601623535156 193.021484375 52.04248046875 193.3388671875 51.63720703125 193.9736328125 C 51.23193359375 194.6083984375 51.029296875 195.5442657470703 51.029296875 196.78125 C 51.029296875 197.9075469970703 51.22379684448242 198.7685546875 51.61279296875 199.3642578125 C 52.00178909301758 199.9599609375 52.54296875 200.2578125 53.236328125 200.2578125 C 53.978515625 200.2578125 54.556312561035156 199.9461212158203 54.9697265625 199.32275390625 C 55.38313674926758 198.6993865966797 55.58984375 197.7952423095703 55.58984375 196.6103515625 C 55.58984375 194.2177734375 54.857421875 193.021484375 53.392578125 193.021484375 ZM 49.203125 199.02734375 L 48.6318359375 201.4296875 L 49.203125 201.4296875 L 49.984375 199.02734375 Z"/>

                <!--javafx.scene.text.Text | => handled as Shape -->
                <path style="fill:#575757;stroke:transparent;stroke-width:1.0;"  transform="translate(21.66015625,124.349609375) "  d="M 45.7900390625 167.021484375 C 45.06412887573242 167.021484375 44.427734375 167.2346954345703 43.880859375 167.6611328125 L 43.880859375 168.5009765625 C 44.45377731323242 167.9671173095703 45.052734375 167.7001953125 45.677734375 167.7001953125 C 46.104164123535156 167.7001953125 46.43294143676758 167.8108673095703 46.6640625 168.0322265625 C 46.895179748535156 168.2535858154297 47.0107421875 168.5660858154297 47.0107421875 168.9697265625 C 47.0107421875 169.3636016845703 46.89925003051758 169.73388671875 46.67626953125 170.08056640625 C 46.453285217285156 170.42724609375 46.08137893676758 170.8610076904297 45.560546875 171.3818359375 L 43.51953125 173.427734375 L 43.51953125 174.140625 L 47.73828125 174.140625 L 47.73828125 173.41796875 L 44.4814453125 173.41796875 L 44.4814453125 173.3984375 L 46.09765625 171.8017578125 C 46.738929748535156 171.1669921875 47.183265686035156 170.6355743408203 47.4306640625 170.20751953125 C 47.67805862426758 169.7794647216797 47.8017578125 169.3408203125 47.8017578125 168.8916015625 C 47.8017578125 168.3219451904297 47.622718811035156 167.8678436279297 47.2646484375 167.529296875 C 46.90657424926758 167.1907501220703 46.4150390625 167.021484375 45.7900390625 167.021484375 ZM 40.16015625 167.021484375 C 39.54817581176758 167.021484375 39.017578125 167.1549530029297 38.568359375 167.421875 L 38.568359375 168.203125 C 39.00455856323242 167.8678436279297 39.46842575073242 167.7001953125 39.9599609375 167.7001953125 C 40.84212112426758 167.7001953125 41.283203125 168.0973358154297 41.283203125 168.8916015625 C 41.283203125 169.7509765625 40.70540237426758 170.1806640625 39.5498046875 170.1806640625 L 38.998046875 170.1806640625 L 38.998046875 170.859375 L 39.5791015625 170.859375 C 40.8779296875 170.859375 41.52734375 171.3167266845703 41.52734375 172.2314453125 C 41.52734375 172.6448516845703 41.38167190551758 172.9736328125 41.09033203125 173.2177734375 C 40.79899215698242 173.4619140625 40.4091796875 173.583984375 39.9208984375 173.583984375 C 39.31868362426758 173.583984375 38.7783203125 173.3951873779297 38.2998046875 173.017578125 L 38.2998046875 173.8818359375 C 38.69368362426758 174.1324920654297 39.22265625 174.2578125 39.88671875 174.2578125 C 40.62565231323242 174.2578125 41.22053909301758 174.06494140625 41.67138671875 173.67919921875 C 42.12223434448242 173.29345703125 42.34765625 172.7864532470703 42.34765625 172.158203125 C 42.34765625 171.7024688720703 42.19873046875 171.3224334716797 41.90087890625 171.01806640625 C 41.60302734375 170.7136993408203 41.20182418823242 170.537109375 40.697265625 170.48828125 L 40.697265625 170.46875 C 41.634765625 170.205078125 42.103515625 169.6126251220703 42.103515625 168.69140625 C 42.103515625 168.203125 41.92692184448242 167.802734375 41.57373046875 167.490234375 C 41.22053909301758 167.177734375 40.74934768676758 167.021484375 40.16015625 167.021484375 ZM 51.6298828125 167.138671875 L 51.6298828125 170.6494140625 C 52.1669921875 170.6103515625 52.533203125 170.5908203125 52.728515625 170.5908203125 C 53.3046875 170.5908203125 53.747398376464844 170.7194061279297 54.056640625 170.9765625 C 54.365882873535156 171.2337188720703 54.5205078125 171.591796875 54.5205078125 172.05078125 C 54.5205078125 172.5130157470703 54.369140625 172.8841094970703 54.06640625 173.1640625 C 53.763671875 173.4440155029297 53.364906311035156 173.583984375 52.8701171875 173.583984375 C 52.37532424926758 173.583984375 51.888671875 173.4293670654297 51.41015625 173.1201171875 L 51.41015625 173.9697265625 C 51.72916793823242 174.1617889404297 52.21256637573242 174.2578125 52.8603515625 174.2578125 C 53.628578186035156 174.2578125 54.233238220214844 174.0511016845703 54.67431640625 173.6376953125 C 55.115394592285156 173.2242889404297 55.3359375 172.6790313720703 55.3359375 172.001953125 C 55.3359375 171.34765625 55.130859375 170.83251953125 54.720703125 170.45654296875 C 54.310546875 170.08056640625 53.731117248535156 169.892578125 52.982421875 169.892578125 C 52.80012893676758 169.892578125 52.6015625 169.8990936279297 52.38671875 169.912109375 L 52.38671875 167.861328125 L 55.0185546875 167.861328125 L 55.0185546875 167.138671875 ZM 49.203125 173.02734375 L 48.6318359375 175.4296875 L 49.203125 175.4296875 L 49.984375 173.02734375 Z"/>

                <!--javafx.scene.text.Text | => handled as Shape -->
                <path style="fill:#575757;stroke:transparent;stroke-width:1.0;"  transform="translate(21.66015625,98.349609375) "  d="M 53.3486328125 141.7001953125 C 54.2958984375 141.7001953125 54.76953125 142.6979217529297 54.76953125 144.693359375 C 54.76953125 146.6204376220703 54.2861328125 147.583984375 53.3193359375 147.583984375 C 52.33951950073242 147.583984375 51.849609375 146.63671875 51.849609375 144.7421875 C 51.849609375 142.7141876220703 52.34928512573242 141.7001953125 53.3486328125 141.7001953125 ZM 40.16015625 141.021484375 C 39.54817581176758 141.021484375 39.017578125 141.1549530029297 38.568359375 141.421875 L 38.568359375 142.203125 C 39.00455856323242 141.8678436279297 39.46842575073242 141.7001953125 39.9599609375 141.7001953125 C 40.84212112426758 141.7001953125 41.283203125 142.0973358154297 41.283203125 142.8916015625 C 41.283203125 143.7509765625 40.70540237426758 144.1806640625 39.5498046875 144.1806640625 L 38.998046875 144.1806640625 L 38.998046875 144.859375 L 39.5791015625 144.859375 C 40.8779296875 144.859375 41.52734375 145.3167266845703 41.52734375 146.2314453125 C 41.52734375 146.6448516845703 41.38167190551758 146.9736328125 41.09033203125 147.2177734375 C 40.79899215698242 147.4619140625 40.4091796875 147.583984375 39.9208984375 147.583984375 C 39.31868362426758 147.583984375 38.7783203125 147.3951873779297 38.2998046875 147.017578125 L 38.2998046875 147.8818359375 C 38.69368362426758 148.1324920654297 39.22265625 148.2578125 39.88671875 148.2578125 C 40.62565231323242 148.2578125 41.22053909301758 148.06494140625 41.67138671875 147.67919921875 C 42.12223434448242 147.29345703125 42.34765625 146.7864532470703 42.34765625 146.158203125 C 42.34765625 145.7024688720703 42.19873046875 145.3224334716797 41.90087890625 145.01806640625 C 41.60302734375 144.7136993408203 41.20182418823242 144.537109375 40.697265625 144.48828125 L 40.697265625 144.46875 C 41.634765625 144.205078125 42.103515625 143.6126251220703 42.103515625 142.69140625 C 42.103515625 142.203125 41.92692184448242 141.802734375 41.57373046875 141.490234375 C 41.22053909301758 141.177734375 40.74934768676758 141.021484375 40.16015625 141.021484375 ZM 44.0712890625 141.138671875 L 44.0712890625 144.6494140625 C 44.6083984375 144.6103515625 44.974609375 144.5908203125 45.169921875 144.5908203125 C 45.74609375 144.5908203125 46.18880081176758 144.7194061279297 46.498046875 144.9765625 C 46.807289123535156 145.2337188720703 46.9619140625 145.591796875 46.9619140625 146.05078125 C 46.9619140625 146.5130157470703 46.810546875 146.8841094970703 46.5078125 147.1640625 C 46.205078125 147.4440155029297 45.806312561035156 147.583984375 45.3115234375 147.583984375 C 44.81673049926758 147.583984375 44.330078125 147.4293670654297 43.8515625 147.1201171875 L 43.8515625 147.9697265625 C 44.17057418823242 148.1617889404297 44.65397262573242 148.2578125 45.3017578125 148.2578125 C 46.069984436035156 148.2578125 46.67464065551758 148.0511016845703 47.11572265625 147.6376953125 C 47.556800842285156 147.2242889404297 47.77734375 146.6790313720703 47.77734375 146.001953125 C 47.77734375 145.34765625 47.572265625 144.83251953125 47.162109375 144.45654296875 C 46.751953125 144.08056640625 46.172523498535156 143.892578125 45.423828125 143.892578125 C 45.24153518676758 143.892578125 45.04296875 143.8990936279297 44.828125 143.912109375 L 44.828125 141.861328125 L 47.4599609375 141.861328125 L 47.4599609375 141.138671875 ZM 53.392578125 141.021484375 C 52.627601623535156 141.021484375 52.04248046875 141.3388671875 51.63720703125 141.9736328125 C 51.23193359375 142.6083984375 51.029296875 143.5442657470703 51.029296875 144.78125 C 51.029296875 145.9075469970703 51.22379684448242 146.7685546875 51.61279296875 147.3642578125 C 52.00178909301758 147.9599609375 52.54296875 148.2578125 53.236328125 148.2578125 C 53.978515625 148.2578125 54.556312561035156 147.9461212158203 54.9697265625 147.32275390625 C 55.38313674926758 146.6993865966797 55.58984375 145.7952423095703 55.58984375 144.6103515625 C 55.58984375 142.2177734375 54.857421875 141.021484375 53.392578125 141.021484375 ZM 49.203125 147.02734375 L 48.6318359375 149.4296875 L 49.203125 149.4296875 L 49.984375 147.02734375 Z"/>

                <!--javafx.scene.text.Text | => handled as Shape -->
                <path style="fill:#575757;stroke:transparent;stroke-width:1.0;"  transform="translate(21.66015625,72.349609375) "  d="M 43.470703125 115.138671875 L 43.470703125 115.861328125 L 47.0009765625 115.861328125 L 44.37890625 122.140625 L 45.208984375 122.140625 L 47.982421875 115.392578125 L 47.982421875 115.138671875 ZM 40.16015625 115.021484375 C 39.54817581176758 115.021484375 39.017578125 115.15494537353516 38.568359375 115.421875 L 38.568359375 116.203125 C 39.00455856323242 115.86783599853516 39.46842575073242 115.7001953125 39.9599609375 115.7001953125 C 40.84212112426758 115.7001953125 41.283203125 116.09732818603516 41.283203125 116.8916015625 C 41.283203125 117.7509765625 40.70540237426758 118.1806640625 39.5498046875 118.1806640625 L 38.998046875 118.1806640625 L 38.998046875 118.859375 L 39.5791015625 118.859375 C 40.8779296875 118.859375 41.52734375 119.31673431396484 41.52734375 120.2314453125 C 41.52734375 120.64485931396484 41.38167190551758 120.9736328125 41.09033203125 121.2177734375 C 40.79899215698242 121.4619140625 40.4091796875 121.583984375 39.9208984375 121.583984375 C 39.31868362426758 121.583984375 38.7783203125 121.39517974853516 38.2998046875 121.017578125 L 38.2998046875 121.8818359375 C 38.69368362426758 122.13248443603516 39.22265625 122.2578125 39.88671875 122.2578125 C 40.62565231323242 122.2578125 41.22053909301758 122.06494140625 41.67138671875 121.67919921875 C 42.12223434448242 121.29345703125 42.34765625 120.78646087646484 42.34765625 120.158203125 C 42.34765625 119.70247650146484 42.19873046875 119.32242584228516 41.90087890625 119.01806640625 C 41.60302734375 118.71370697021484 41.20182418823242 118.537109375 40.697265625 118.48828125 L 40.697265625 118.46875 C 41.634765625 118.205078125 42.103515625 117.61263275146484 42.103515625 116.69140625 C 42.103515625 116.203125 41.92692184448242 115.802734375 41.57373046875 115.490234375 C 41.22053909301758 115.177734375 40.74934768676758 115.021484375 40.16015625 115.021484375 ZM 51.6298828125 115.138671875 L 51.6298828125 118.6494140625 C 52.1669921875 118.6103515625 52.533203125 118.5908203125 52.728515625 118.5908203125 C 53.3046875 118.5908203125 53.747398376464844 118.71939849853516 54.056640625 118.9765625 C 54.365882873535156 119.23372650146484 54.5205078125 119.591796875 54.5205078125 120.05078125 C 54.5205078125 120.51302337646484 54.369140625 120.88411712646484 54.06640625 121.1640625 C 53.763671875 121.44400787353516 53.364906311035156 121.583984375 52.8701171875 121.583984375 C 52.37532424926758 121.583984375 51.888671875 121.42935943603516 51.41015625 121.1201171875 L 51.41015625 121.9697265625 C 51.72916793823242 122.16178131103516 52.21256637573242 122.2578125 52.8603515625 122.2578125 C 53.628578186035156 122.2578125 54.233238220214844 122.05110931396484 54.67431640625 121.6376953125 C 55.115394592285156 121.22428131103516 55.3359375 120.67903900146484 55.3359375 120.001953125 C 55.3359375 119.34765625 55.130859375 118.83251953125 54.720703125 118.45654296875 C 54.310546875 118.08056640625 53.731117248535156 117.892578125 52.982421875 117.892578125 C 52.80012893676758 117.892578125 52.6015625 117.89908599853516 52.38671875 117.912109375 L 52.38671875 115.861328125 L 55.0185546875 115.861328125 L 55.0185546875 115.138671875 ZM 49.203125 121.02734375 L 48.6318359375 123.4296875 L 49.203125 123.4296875 L 49.984375 121.02734375 Z"/>

                <!--javafx.scene.text.Text | => handled as Shape -->
                <path style="fill:#575757;stroke:transparent;stroke-width:1.0;"  transform="translate(21.66015625,45.349609375) "  d="M 41.0390625 88.880859375 C 41.02604293823242 89.14778900146484 41.01953125 89.388671875 41.01953125 89.603515625 L 41.01953125 92.630859375 L 38.59765625 92.630859375 L 40.7509765625 89.41796875 C 40.88444137573242 89.17708587646484 40.97395706176758 88.998046875 41.01953125 88.880859375 ZM 45.7900390625 88.7001953125 C 46.7373046875 88.7001953125 47.2109375 89.69791412353516 47.2109375 91.693359375 C 47.2109375 93.62044525146484 46.7275390625 94.583984375 45.7607421875 94.583984375 C 44.78092575073242 94.583984375 44.291015625 93.63671875 44.291015625 91.7421875 C 44.291015625 89.71419525146484 44.79069137573242 88.7001953125 45.7900390625 88.7001953125 ZM 53.3486328125 88.7001953125 C 54.2958984375 88.7001953125 54.76953125 89.69791412353516 54.76953125 91.693359375 C 54.76953125 93.62044525146484 54.2861328125 94.583984375 53.3193359375 94.583984375 C 52.33951950073242 94.583984375 51.849609375 93.63671875 51.849609375 91.7421875 C 51.849609375 89.71419525146484 52.34928512573242 88.7001953125 53.3486328125 88.7001953125 ZM 40.84375 88.138671875 L 37.728515625 92.7578125 L 37.728515625 93.2802734375 L 41.01953125 93.2802734375 L 41.01953125 95.140625 L 41.810546875 95.140625 L 41.810546875 93.2802734375 L 42.708984375 93.2802734375 L 42.708984375 92.630859375 L 41.810546875 92.630859375 L 41.810546875 88.138671875 ZM 45.833984375 88.021484375 C 45.06901168823242 88.021484375 44.48388671875 88.3388671875 44.07861328125 88.9736328125 C 43.67333984375 89.6083984375 43.470703125 90.54427337646484 43.470703125 91.78125 C 43.470703125 92.90755462646484 43.66520309448242 93.7685546875 44.05419921875 94.3642578125 C 44.44319534301758 94.9599609375 44.984375 95.2578125 45.677734375 95.2578125 C 46.419921875 95.2578125 46.997718811035156 94.94612884521484 47.4111328125 94.32275390625 C 47.82454299926758 93.69937896728516 48.03125 92.79524993896484 48.03125 91.6103515625 C 48.03125 89.2177734375 47.298828125 88.021484375 45.833984375 88.021484375 ZM 53.392578125 88.021484375 C 52.627601623535156 88.021484375 52.04248046875 88.3388671875 51.63720703125 88.9736328125 C 51.23193359375 89.6083984375 51.029296875 90.54427337646484 51.029296875 91.78125 C 51.029296875 92.90755462646484 51.22379684448242 93.7685546875 51.61279296875 94.3642578125 C 52.00178909301758 94.9599609375 52.54296875 95.2578125 53.236328125 95.2578125 C 53.978515625 95.2578125 54.556312561035156 94.94612884521484 54.9697265625 94.32275390625 C 55.38313674926758 93.69937896728516 55.58984375 92.79524993896484 55.58984375 91.6103515625 C 55.58984375 89.2177734375 54.857421875 88.021484375 53.392578125 88.021484375 ZM 49.203125 94.02734375 L 48.6318359375 96.4296875 L 49.203125 96.4296875 L 49.984375 94.02734375 Z"/>

                <!--javafx.scene.text.Text | => handled as Shape -->
                <path style="fill:#575757;stroke:transparent;stroke-width:1.0;"  transform="translate(21.66015625,19.349609375) "  d="M 41.0390625 62.880859375 C 41.02604293823242 63.14778518676758 41.01953125 63.388671875 41.01953125 63.603515625 L 41.01953125 66.630859375 L 38.59765625 66.630859375 L 40.7509765625 63.41796875 C 40.88444137573242 63.17708206176758 40.97395706176758 62.998046875 41.01953125 62.880859375 ZM 40.84375 62.138671875 L 37.728515625 66.7578125 L 37.728515625 67.2802734375 L 41.01953125 67.2802734375 L 41.01953125 69.140625 L 41.810546875 69.140625 L 41.810546875 67.2802734375 L 42.708984375 67.2802734375 L 42.708984375 66.630859375 L 41.810546875 66.630859375 L 41.810546875 62.138671875 ZM 45.7900390625 62.021484375 C 45.06412887573242 62.021484375 44.427734375 62.234703063964844 43.880859375 62.6611328125 L 43.880859375 63.5009765625 C 44.45377731323242 62.96712112426758 45.052734375 62.7001953125 45.677734375 62.7001953125 C 46.104164123535156 62.7001953125 46.43294143676758 62.81087112426758 46.6640625 63.0322265625 C 46.895179748535156 63.25358200073242 47.0107421875 63.56608200073242 47.0107421875 63.9697265625 C 47.0107421875 64.36360931396484 46.89925003051758 64.73388671875 46.67626953125 65.08056640625 C 46.453285217285156 65.42724609375 46.08137893676758 65.86100006103516 45.560546875 66.3818359375 L 43.51953125 68.427734375 L 43.51953125 69.140625 L 47.73828125 69.140625 L 47.73828125 68.41796875 L 44.4814453125 68.41796875 L 44.4814453125 68.3984375 L 46.09765625 66.8017578125 C 46.738929748535156 66.1669921875 47.183265686035156 65.63558197021484 47.4306640625 65.20751953125 C 47.67805862426758 64.77945709228516 47.8017578125 64.3408203125 47.8017578125 63.8916015625 C 47.8017578125 63.32194137573242 47.622718811035156 62.86783981323242 47.2646484375 62.529296875 C 46.90657424926758 62.190757751464844 46.4150390625 62.021484375 45.7900390625 62.021484375 ZM 51.6298828125 62.138671875 L 51.6298828125 65.6494140625 C 52.1669921875 65.6103515625 52.533203125 65.5908203125 52.728515625 65.5908203125 C 53.3046875 65.5908203125 53.747398376464844 65.71939849853516 54.056640625 65.9765625 C 54.365882873535156 66.23372650146484 54.5205078125 66.591796875 54.5205078125 67.05078125 C 54.5205078125 67.51302337646484 54.369140625 67.88411712646484 54.06640625 68.1640625 C 53.763671875 68.44400787353516 53.364906311035156 68.583984375 52.8701171875 68.583984375 C 52.37532424926758 68.583984375 51.888671875 68.42935943603516 51.41015625 68.1201171875 L 51.41015625 68.9697265625 C 51.72916793823242 69.16178131103516 52.21256637573242 69.2578125 52.8603515625 69.2578125 C 53.628578186035156 69.2578125 54.233238220214844 69.05110931396484 54.67431640625 68.6376953125 C 55.115394592285156 68.22428131103516 55.3359375 67.67903900146484 55.3359375 67.001953125 C 55.3359375 66.34765625 55.130859375 65.83251953125 54.720703125 65.45654296875 C 54.310546875 65.08056640625 53.731117248535156 64.892578125 52.982421875 64.892578125 C 52.80012893676758 64.892578125 52.6015625 64.89908599853516 52.38671875 64.912109375 L 52.38671875 62.861328125 L 55.0185546875 62.861328125 L 55.0185546875 62.138671875 ZM 49.203125 68.02734375 L 48.6318359375 70.4296875 L 49.203125 70.4296875 L 49.984375 68.02734375 Z"/>

                <!--javafx.scene.text.Text | => handled as Shape -->
                <path style="fill:#575757;stroke:transparent;stroke-width:1.0;"  transform="translate(21.66015625,-6.650390625) "  d="M 41.0390625 36.880859375 C 41.02604293823242 37.14778518676758 41.01953125 37.388671875 41.01953125 37.603515625 L 41.01953125 40.630859375 L 38.59765625 40.630859375 L 40.7509765625 37.41796875 C 40.88444137573242 37.17708206176758 40.97395706176758 36.998046875 41.01953125 36.880859375 ZM 53.3486328125 36.7001953125 C 54.2958984375 36.7001953125 54.76953125 37.69791793823242 54.76953125 39.693359375 C 54.76953125 41.62044143676758 54.2861328125 42.583984375 53.3193359375 42.583984375 C 52.33951950073242 42.583984375 51.849609375 41.63671875 51.849609375 39.7421875 C 51.849609375 37.71419143676758 52.34928512573242 36.7001953125 53.3486328125 36.7001953125 ZM 40.84375 36.138671875 L 37.728515625 40.7578125 L 37.728515625 41.2802734375 L 41.01953125 41.2802734375 L 41.01953125 43.140625 L 41.810546875 43.140625 L 41.810546875 41.2802734375 L 42.708984375 41.2802734375 L 42.708984375 40.630859375 L 41.810546875 40.630859375 L 41.810546875 36.138671875 ZM 44.0712890625 36.138671875 L 44.0712890625 39.6494140625 C 44.6083984375 39.6103515625 44.974609375 39.5908203125 45.169921875 39.5908203125 C 45.74609375 39.5908203125 46.18880081176758 39.71940231323242 46.498046875 39.9765625 C 46.807289123535156 40.23372268676758 46.9619140625 40.591796875 46.9619140625 41.05078125 C 46.9619140625 41.51301956176758 46.810546875 41.88411331176758 46.5078125 42.1640625 C 46.205078125 42.44401168823242 45.806312561035156 42.583984375 45.3115234375 42.583984375 C 44.81673049926758 42.583984375 44.330078125 42.42936325073242 43.8515625 42.1201171875 L 43.8515625 42.9697265625 C 44.17057418823242 43.16178512573242 44.65397262573242 43.2578125 45.3017578125 43.2578125 C 46.069984436035156 43.2578125 46.67464065551758 43.05110549926758 47.11572265625 42.6376953125 C 47.556800842285156 42.22428512573242 47.77734375 41.67903518676758 47.77734375 41.001953125 C 47.77734375 40.34765625 47.572265625 39.83251953125 47.162109375 39.45654296875 C 46.751953125 39.08056640625 46.172523498535156 38.892578125 45.423828125 38.892578125 C 45.24153518676758 38.892578125 45.04296875 38.89908981323242 44.828125 38.912109375 L 44.828125 36.861328125 L 47.4599609375 36.861328125 L 47.4599609375 36.138671875 ZM 53.392578125 36.021484375 C 52.627601623535156 36.021484375 52.04248046875 36.3388671875 51.63720703125 36.9736328125 C 51.23193359375 37.6083984375 51.029296875 38.54426956176758 51.029296875 39.78125 C 51.029296875 40.90755081176758 51.22379684448242 41.7685546875 51.61279296875 42.3642578125 C 52.00178909301758 42.9599609375 52.54296875 43.2578125 53.236328125 43.2578125 C 53.978515625 43.2578125 54.556312561035156 42.94612503051758 54.9697265625 42.32275390625 C 55.38313674926758 41.69938278198242 55.58984375 40.79524612426758 55.58984375 39.6103515625 C 55.58984375 37.2177734375 54.857421875 36.021484375 53.392578125 36.021484375 ZM 49.203125 42.02734375 L 48.6318359375 44.4296875 L 49.203125 44.4296875 L 49.984375 42.02734375 Z"/>

            </g>
        </g>
        <!-- Warning: Multiple fills are not yet implemented. => Only first fill will be used. -->
        <!--com.sun.javafx.charts.Legend | chart-legend | => handled as Region -->
        <g style="fill:#FFFFFF;"  transform="translate(254.0,566.0) " >
            <g>
                <rect width="92.0" height="29.0" rx="4.0" ry="4.0"/>
            </g>

            <!-- javafx.scene.control.Label | label chart-legend-item | => handled as Label -->
            <g>
                <rect width="65.82421875" height="17.0"/>

                <!-- Warning: Multiple fills are not yet implemented. => Only first fill will be used. -->
                <!--javafx.scene.layout.Region | chart-legend-item-symbol chart-line-symbol series0 default-color0 | => handled as Region -->
                <g style="fill:#F3622D;"  transform="translate(0.0,4.0) " >
                    <rect width="10.0" height="10.0" rx="5.0" ry="5.0"/>
                </g>

                <text x="30.0" y="15.5" font-family="System" font-size="12.0" fill="#333333" text-anchor="LEFT">My portfolio</text>

            </g>

        </g>
    </g>
</svg>